<mxfile host="app.diagrams.net" modified="2022-09-24T02:56:57.245Z" agent="5.0 (Windows NT 10.0; Win64; x64) AppleWebKit/537.36 (KHTML, like Gecko) Chrome/105.0.0.0 Safari/537.36" etag="-HLU6QvFGRFjdpP5xn2-" version="20.3.5" type="github">
  <diagram id="XvT4g7Vny72mVqWPQXKz" name="페이지-1">
    <mxGraphModel dx="1422" dy="762" grid="1" gridSize="10" guides="1" tooltips="1" connect="1" arrows="1" fold="1" page="1" pageScale="1" pageWidth="1169" pageHeight="827" math="0" shadow="0">
      <root>
        <mxCell id="0" />
        <mxCell id="1" parent="0" />
        <mxCell id="lZvOYTNsYxkt9xm4c5QZ-1" value="" style="verticalLabelPosition=bottom;verticalAlign=top;html=1;shadow=0;dashed=0;strokeWidth=1;shape=mxgraph.android.phone2;strokeColor=#006658;fillColor=#21C0A5;fontColor=#5C5C5C;" parent="1" vertex="1">
          <mxGeometry x="124" y="360" width="50" height="90" as="geometry" />
        </mxCell>
        <mxCell id="lZvOYTNsYxkt9xm4c5QZ-2" value="" style="shape=image;verticalLabelPosition=bottom;verticalAlign=top;aspect=fixed;imageAspect=0;image=data:image/png,iVBORw0KGgoAAAANSUhEUgAAANEAAADyCAYAAADTAiB3AAAkyElEQVR4Xu1dCVhWRfcfUCRFxUpN/VSw0twSTdxTFhE1s89AFCmLDDf4UAsDUTETDUUpAVFRNMpdAlvUEhBccqFw3/WvYZoamkqIiQv8z9z3fQER5L33veu8Z56HJ5I7Z2Z+Z353Zs495wwhWBABRAARQAQQASURsFCycWy7YgROXT/fJuvyYadL+dda5N8vsK1TwyavWZ1GF7o17birTYOXTiFu6kIASaQSfRQ8+LfWF/tWzgg7sjyEPPyHEMua8GNV2ruiB4QU/UtI9bok3GH0/I97jJppY1Xzrkq6b9bdQBKpQP2Jh5LH+e6asYTrilXdqnv0AEgGJbHPrHG+nTzjq66AT0iJAJJISnSrkL3z4m+uYzNmbTqdd6YuqfE8/57c/5u0tn0l9+t+s4d0a+qwj78ArCEGAkgiMVDkKePKneuNA1NnrUi+uGUgRx6L6jwllHm8+CEhhbnE0/6tLbHuM/ya1G5wTbgwrCkEASSRENQE1il89KBG5J5ln4VlR04hNerDmaeGQEkVVCu6T8j9GyTcMfjz4F5jZlpXs4JDFBY5EEASyYEytJF8ctsIzx0z1xJ6njHm3CO0X3r5KS6fDfNo454kVAzWMx4BJJHxWAl68njuuQ6+26b9kH3jkB2xhtVHrlJ4gzjW73Q2sf8cz/YNWx6Xq1lzbAdJJJHWbxfm205On7c44XSiD3mmsWnnHqF9pOele1eJX2vfNQvcQvzrWdfRmfWwiIoAkkhUOHXCYn9dFRK4b+5c7jtPNfjeo3R5BN+X4DtTbI8pIYFdR0Yq3R3W2kcSiajRHTlZbsPSpqXl3r0q7blHaJ/hvNSwVmOysd+cfs723dKFisF6jyOAJBJhRuTcvmLvvTkobf/1rJdNNlmL0J+niqBbPPi+1L1Bt5Pr34waZF+vSY7UTbIu35L1AUo5PnruCU6PjLFf2eP3/bfPvkysX1Dm7MNnkPSbFPQT+tuW9pv2n46Djwh8FlciUeYAuOr4+/4SHscJU8O5R+io6HkJSuLrYf7gQqRzPcLCCwHczvGCi5CSc0/BH0SQqw7P9mR7HLZ4DW2akx8HRvVEFyJ+qCOJjMSLnnvGbJuxLvXPtO7EuqH6t21Gjuuxx/Qmca8XPbdE95s+GlyIwEKCpSoEkERVIERDFD7bGTs38tjSQGL1rLiuOlVpR6m/0y3eo7sk/LWJEeBC9Cm6ED1dEUiip+DDO0RBqUkvVbvUhQi+daW4RXqDC9EGqZrRulwkUQUazLp8pMf7adO/P337dANZXXXUOpsK/wIXIscLy9xmDn+tcdtstXZTqX4hicogT0MUZuyMXpBwZpUPs+ceoTNNH3Lh98pI6kIUAC5EeUJFsVYPSaTXaPiuuNlhB6OnkWq1tG2ylnqGlroQfQIuRAukbk4L8s2eRCmnUr090oPXUd8ySUMUtDAb+PRRH3Kx442FZu9CZLYkOnj1pKP/9vDV4KrzCudpgEUYAnBecm/iuifaNXQMZCI6KUyItmuZHYlKQhTw3CPezKVRtQ9ukaD2o5fOcp4UZG5ZiMyKRBCi8Engnk8jadopTbvqiDf9xZWk/74U33vWxLGdvWPEFa5eaWZBInDV6QchCqmqDVFQ7/wQ1jN9FqJ41xkjnOy6ZAgTop1aTJMIMom2nZgRsTz1SkZP1YcoaGfOGNdTfciFl/3gzeBCNIZlFyImSaR31YmMPBoXIHpWHeOmED5lQECfhSi4Q0DMp06BoSyel5gjEbjqjIVsoktVE5qNdNIhoHchgpCLsRBysYwlWJghEbjq9OJcdfLOPM9UiAJLs42ORXdeugZZWz0h5GIvC8PTPIn02URXQjbRAXju0ciULD0v/QjnpbFaPy9plkSQTdSKyyb6W0Qo97FUzGyiGpmLmu8mNYnD9yXI2kpDLmjWVvjgpL2iSRJBNlEfz8zpa8hDuFlEymyi2tOnNntcmrVVkyEXmiKRYtlEtTk1tddryNravYHjiQT3WSMga+sxrQxAEyRSRTZRrWhU6/0szdq6GkIu/qeFkAvVkwhcdaYE7g2PwBAFrbODZ/9LQy6CIeRiPs/asj6uWhLRrDrOWyelSX6LgqxwY2O8ESjN2uoGWVu3864vQwXVkQhcddoFZMxZnXFlR0c0WcswA7TQhN4k7trEef/K/rNHqC1rq2pIRM89n+9e8nnkkRh/NFlrYWYr0EfqQgTxS8EOE2Kn9h4fppbzkipIVJJNFKNLFZiZGmyy1IVoPLgQLVV6BIqSCFx1eg7+KWhPLmvZRJXWqrm0r3MhugkuRIOVdCFShEQ0m2hQRkR8cs4P7phVx1xmvETjLL34+aco11B/Jc5LspKoxFXnQFSo2WQTlWjuoNhyCFCT+MN/SHjnINmztspGIs5VJ2PqGvLoHrrqIAOkQ4Cel6rXIskus9/xbNt/rXQNlUqWnEQ0q47PzyFpkE20HmYTlUOl2AaHALgQta7XOnftgHlvQNbWA1KiIhmJ9NlEv4Bsot547pFShSi7UgRKs7auneU0cbJUIReSkAhcdYLBVWceuurgBFcFAvosRLE9wyRxIRKVRFw20Yxp6zBEQRVTBztRHgH9eWnHoEWiuhCJQiKaVQdcdRLBVacLZhPFuat6BMDrAVyIsuNcp70vRtZWk0hEs+qEZiyIjjn5lR+arFU/dbCDZRHQZ22d0PaD5RGukyeZkoVIMIniD6wPHLt7Rgyee3BuahqB0qytgZC1dZGQsfAm0c6Lv7l4pYZmoKuOELixjmoR0F/8nOQe4QpZWzP59NNoEulddRZDVp2BGKLAB2J8VjMI6EMuPO0GbQUXovHgQgRXxFddqiQRddUJy/xyAWQTnYDZRKsGFJ9gAIHSrK2Lwl0++riqi5+fSiIum+gv4UvxAiwGJgYOgT8CRmZtrZBE1GT99uZJO8FVpz666vDHHmswhoDOhejGpjcX9gGT+Knyo7Ms/w+w+vi1WeV64vTda0ggxuYCDkcgAtb1CeUD8OIk8OPDp5IILv+d5ZsxcTl5pgkhFtUFtojVEAEGEaB8AF4APxIoT8qOsGQ7By47Xh5bR20kNZsxiAAOCREQEYF/L5GUN1YO82jjnkSlciSCJCF16y3tnocpeUUEGkWxjQB8pL09ZnddSJaSz52JIMvObLZHjKNDBERGAJLqAG/mcSsRfAeytI5t9wjv9BEZZBTHPgLg5UAmnbWw3HfpYDv2R4sjRASkQQAy9fa23P1Hdh/OiRQLIoAI8EMAeAP86W95Mf9qG2JRjV9lfBoRQATgMFSNAH9aVv/jzrWOxOKJb67sQ0SdDYuL4OeRbqz0RUJxwO9j/HRPcaSZa80RP5gvwJ8O1R+SIit+qGn0aapserMedS6Eqykdn2v3R4vajc82r93o4oOih9X/LMhtfiIv57XT/1ywJcUwKWih29xqNTU6YAm7TX3KiiDPG1zz6Vr/1UPt67U4fPdhYa3DN892y755wp7DuLqNWWBH+UPdEuB1zHjRx4qEdZkQ7Nai52bq/5RNTpDsSoYNmYoa7L90yGnrhV1eCRc2DyOP6LWWtrhK6a+FXNxzatAbLV02QqjA5Qyyj2SUwxHSQ3ddc+KHcTGnVn1gDi8iC9cNo/Zk3DjWk8ltDI1ahJUkxeWz4fB1eaOQVwWEwNf8+dyu/07LWrTkdN6Zemb7KQBeRJAtZ/KYzt4xVYUGGHCGGDS7TzLnLU3K2TqASUdm2N3ASnyerkTFQiaX6uuA561fq+Gr4wZ8OspYpVc0Joi9ByaS9fQHsrh6e6YGrjOHt+tjWMAKdNxnSwd6j2ogGWm06mGluggPD4QUapMDf5k+n/PJZLCwaVGAt2Z450nhCYNmjzSFQOX1DWlp1xcEHLHxauq0lWbYNIsCmXFy3k+zN+UiYrguckG807wJ9G4hBgtnlqsyulVTA4ctnF/LYV+H9QmYIUW/aVaYpLejBy1+febH5N4VKZpQj0yY9DveXtdXv6KY1C9IAhILmXVWErrFZqtYUhKxtRpZWhHYwo2WWk/+Xd75MnnAshEEPHqZLPRl1MrnG7gntbzdQPBwITVVAGcOZ6twKxE7JIJtXIrrHC8xt3BP0zfd3iUPXOHD5DYFLJKQvzpEzPkOq/i9+NfDJnCXWbNTOBKx465gYUXACvetnPoBIq2L7fVZCFNE0m2J10IC+GtiY+nb0XNxyXc4sYUrI48hElHFv/z2KiVwhINzpJf94J+ZecPCKvTGi302SYEl7BIeedkN3MZ9kGWjMLSdg73260067VBKL2BsGNj9+Q4nmTg4w/eP1xq33ysVlm7Ne2zmLntjo3CGBTasc+CqY/9s0/NK6uVnr2U9OTch6mKk5QL+hGCRk8z0+MrzLU4wtKVjaCWibwMLS703qTIzGEKF8055rW5PCnOV6YBGWlVaTyLDxJz7tuKrKvjlndjhsbEfs6ZvcWYgU14y7GznxFGuKFLg20p6bO+IYLPxauCPmuIvO/5drrwGO9+IxERFBFlgsZsPvnvrmbHYiYAJqyKQRBJqFnz3RkDc0kmGzLkSoqVd0ayRSHV77Z3eX3ehQYCat9hpd45L3fNiPBNJDDF1WAWLXTvyIE/illC8UgjgSiQD8vRy3R1DVrmhxU4GsOVvgluJsMiAAFjstoPFbjJTPnYy4KaFJpBEMmoJLHZREFOTiBY7GUGXoSkkkQwgFxcXu8PPEtpUTP+wD5jxsZMBOw00wdx2TnXWOf0kcIP/jgMicfE524ev7MKEj50GZrgcXcSVSA6UCTG4LM8FIl2qVf2ZX3N8ks8RmhAdi9YRYG4lUqtC5pfpWFP4vZ2dbeOWkL8A6CWZs7RasWCtX0giOTRqYWGRD+3M1bf1N/w/V8BiZwFZcCaixU4OLUjXBm7npMP2McnAmVD4B2/4WVT2D5AFJwYsdkfRYieTIiRoBkkkAaiViQQibYCfmeX/Hu0+PQUsdoSJqFgZ8VRJU7idU4kiVoDFTpcAXutRsSoBVM5u4EokJ9qVtAWr02Ww2NmAxS6Hu7kCi5YQwJVILdoCIt2FvAYtdg5JjEEfO7Voxbh+4EpkHE6yPeVk12VivPOCCWj6lg1ykxtCEpkMofgCuLzV7fwS0GInPrYSSOS2c2p1lREyXknHUvjogWzZYsHHbrR7ox570GInZBrIWwdXIh54D/52fGWX6/GQYvyjPw5d4tLwmfpFaLEzHjMFnkTDAh/QUy8kdAzfFRfJp44pz9LE/IdHrGuGUbGmoCh5Xea2c9IiZm1HwrIjP0k8lPyhtA2VSoek8leyhib1QtcguRDn3w5r2zlJz0QcvHBlom/GxAS43LcHf7iF1ejW1GFvovP88UgkYfhJXAtXIkEA12xGuiX77IVbxhsLqi+gkm8nz6VB7UcvZcRix1LyRjwTCZjPuirVa5GO60b8DhY7K8EyeFaM6hc63rVRt31oseMJnLSP40okGF+L6iT33g1rsNj9LFiGgIo/DY13AotdIVrsBIAnTRXmViLpz0RlFQEOo6lXd7kGp0culEY/T0qlFrtfvb5pjRY7uRCvsh3mSFTliEV/oMbzJPJo3ESw2I0SXXYlAsHHLoez2LF66bJcQIrTDpJIFBypxS7z4xVgsesmijwjhHAWO9fosehjZwRY0j6CJBINXyASWOz2y2yxWxbcISAOE56IpkUhgpBEQlCrtI7OYndOTotdpFvw/9wb90EfO1EVyUsYcySS17BQHmudxc4GLHapvNRg4sOpwxNeB4sdRsWaiKPQ6ngrhFDkKquns9g5g8UuRmzRT5MHPnb/wahYOREvaYu5lUgRFJ9oVGexC5Tdx85zbS80NMg+BZBEkkFe6mPXXbI2ygmmFrvkAct8kEhyIc61gySSFG6dj90+OS12nm37rwOL3WK02Emq2ceEs+bFLR9yxrakgI8dWOwC0GJnrIJMf441EilrnatIH3ofu4Hfjt1uurqMl6CPin2Aly4bj5nQJ1kjkVAcpK0HFruMa1m9g9IiHkshLGWj+qhYO1L8SMpmULb+TKS+tzeLqrGqS6KOLw8Ai52fXMODqNirB4eu7YI+dtIijiuRtPg+Lt36Bepjt3znxd+c5Wr2tcZts5MHrvBGi510iCOJpMO2Yslg+nba9E5mzu0r9nI1DRa7DeGOwRFosZMGcSSRNLg+XaqVLema9N5pOX3swvoETPVs3n8bRsWKr3AkkfiYVi2x1GKXWfXD4j2R7BE7AHzsHqHFTjxMqST0nRMXT+Ol6Sx2vcBit9j4SqY/efa9Tc9zFjtlr3BhKVEJRyIsSiGgs9iNjz+wPkCuLtSzrpPHWezw0mXRIMeVSDQoBQoCi93YHZMXgcXORaAE3tU4i13/Jehjxxu5iivgSiQSkCaJAR87sNhlyGyxWwcWu7m4IpmkOa4yrkSmYyiOBJ3F7v8KHvxbSxyBVUsBi12ol93ArYwkhKx6wBI9gSSSCFjeYnUWu2p9N4z6hXddEyokvR09qHXdFy+ixU4wiBZIIsHYSVARLHb7/z7aacK28GUSSK9U5H6ftQ4qsNjJOWRR20ISiQqnCMLAYhdz8qvRYLH7nwjSjBJBLXbHhyc5kMJco54X4SGW/DWZW4nYUA612O0MiZXTx659w5ZHUwYuH47OqvxfEWid44+ZPDWoj13KcFl97DzauG8M7xI6jxRelGeMbLTCrURY1IoAJDyxX+v5u8wWuynuL/odUCskauwXnonUqBVDn8BiRx1GB6cEyBoVu8kjto+aYVFZ33AlUplCnuyOzseuO1jsVsjVVxurmnflaouFdnAl0oIWdRa7UYt/WzNJC901sz7iSqQZhYPFzn9XyJc7crL6aqbPZtJRXIm0pGjwsXP+flS6nD52WoJHqb4iiZRCXmi7kMdOboud0K6aST0uAypLAVJsfGx92uzTW+zAx26PmUxS1Q+Tkgi/FaleTeU6qPOx6yi3j51YMBUXFzE151hbicTSs/rl6H3swGI3Uf2dZbqH3HaOqbcC0+oqPzhqsds9dSFY7FzNatwqGyyuRCpTCO/ugI+d86YR29Fixxs50SqwthKxZCQxXskK+NgZ3zn2n2SNROxrrKIRllrs9ponAMqOGkmkLP7ita6z2Dn4bZm+RjyhKMkIBDi3HzQsGIGUJh4Bi13C2bU+sb+u+kgT/WWjk8xFtrKhFlNGARa7wN2hX6jZYmdhYVlkyhBVVhdXIpUpRJzuUB+770ZuP3X9fFtxBKKUpyDAnBe3eVrnKtIw5LFrk/TuCTmjYo2lGmMeC7idM1bxmnuOWuyK7pPOq4cd01zftdVhJJG29MWzt5Y1yOl/LrwIFrtveNbEx41HgLntnPFDN5cnOYvdhpFgsZtkLkOWe5zo9iM34kq0Z12fWuy+TDmV+rYSzbPeJmvfiNCwUNmMBYudx9ZRKWCxa8P6pJZ7fJREzASy/X33VgOpALxdmG9LLKpJJV4euc80Jm02ep/kxoJFLAS4UAg2ioUVuXbnenOpBnP73/xnpZItm1xqsSsuIt3X+hyXrc0KGsq5dfllAvpipbCzElV7hnx3IdNHKsUcuHKsF7GsKZV4+eTqLHZNvTZN/FG+Rh9v6Zcrh/oS0BcrhR0SweRIvfzz63CtPbxuxS/rz2z1Y0bxYLFLytn6ZviuuHDxkapaYsK5jcMJ6IuRwtB2jmqkui1Zd/SH98VWzpU71xsn/ZHuzJDiCQGLXdiBqOmJh5L9xMbrafKST27zZmkrR8fKzpmIjgbesL6/hCfAaiTqhnvGzuhoYimqSDnnbeVtgbOqb8bE5UCkUXJ0CFyQanpuD1lH9cRSYfI70dSMBV+KpSS4I8gVwgu8CMTrMFnA9O2b+fEKObZ2vpunbGQRQ/ZIBJM96vjyADG2KTRvAdwRtJ3AG5vpAnkawg5GT3ff4LcDzN+SLBNBaRGLky7+9CaDLyPmkjfq5jrdpmR+vNyUt2vW5SM97ROdf2eeQIa3A+RpSL1+yKneYoc8uOrSX6yXBt1aU0tg1ImvxhNog8HCcMos/dvVMyVwK6woRn8/okoH8kV0Sxq6h1GlVz6PqcWMXnW5e0Zcw+Vu98EIMNSU8yW4GXlZL+15P+nyzjcZxrLYwnXDqLsZN47VJPRDHIsFwgHIg1tkQtsPvnqn3VvLuzV12FfRMCnRtp7LHOr/68Io8hCu52Hs8MtbtcUPAbc8QqrVIkGthy8b3NJ1fav6L55sUrvBX0+TBTg223Z+13/DDibE5hb8QRgmD3y4fkhc6796gn0SGTQON86RR7q7qxraNCdO9dul2tao88/hm2e7ZN8+a0ceFoCtEt7E5k6eihhiwK4YPMSq2xD3ho5ZzWs3uvScdd2b9PHf8/9s8fudqy8Dji1KcITE+8y+mA0Y6Uh03AIOkzdTbxx5lvkBl50c9C0L7i+k+BEQB0zXrK7CvJcfIytQ/IoelD5MfQppVI254Qg4uNd3OGQJb5TD3IQyp0KVTVcdarY2N8WLoWeKGcXO8EOxNEccgTfAn1OWdnUaH+DeyFgQAUSAHwLAG+DPOcvezR2/M5wV+EnApxEBM0cAztjAn1RdENvCVsVMW1HMXNc4fIkQuP83IZPO6nIsBLf3iycP/pGoJRSLCDCIAPAFeBNNR8atRODqUbvest75DLpkMKg9HJIqEACz/+0xu+vUs65zh1uJ6C8pbpHe5N9LqugfdgIRUDUCwBPgyzDKG9rPklAIjzbuG8K7hM5GIqlafdg5pREAAsX2jpgEfEkydOWJ7DjU+5nGmBBIamGWtn+llYTtqxMB+oH53lWS6Brt59vJc0XZTlaYYup47rn2Q7d8nHn69un6NAISCyJg1ggU3iCt67W++u2gL/q1b9jyRHksnpqnDValsRApupRz8UCfMrOeR2Y5eGqxBrewxNfDRsPqk1AZBlUmO6Su8GGZX0ZFHo0LJDVgVWInwYRZzgsctBEIUM//+zdIcIeAmHCXjyZbV7Mq4yj4ZP0qSWSoQqM8gzIiliZf3NKf+zBrjr5SRuCPj2gYAXrugQ+onnaDtkS5ho63r9fEKHO10SQyQAM5B1y8UkMzmI8V0fBcwK4LQADIQ0NkktwjXJzsuuzgI4E3iQzCIYQ4ECIgY2jQFn6k5QM5PqsqBPSxUvG9Z00Y29k7VkjfBJOINkZvYQvNWBAbc/KrUcQKsuzieUmIDrCOEgiURjwvj3CdPMnGqqYuYlNAMYlEhvbAJP7qhMyIrzOu7OhkNok9BICNVVSCQOFfxLWJ84E412kj2zR46ZSpvRKFRIZOQGKK4R4Z09ZjjgJT1YL1JUGAmqwhbD3Fdc5w8DgQLQeeqCQyDBxuZQsO3Bs+D89LkkwFFMoXAf25J7Zn2OTAriOj+Fav6nlJSEQbpfmrIf1uVMKZVSOIdUM0iVelCfy7+AhQk3VhLvF7ZeSaWU4Tg6rKVCS0A5KRyNChg1dPOvr8HEJdiGqjC5FQNWE93gjoXHWurx0wb+Brjdse4F2fRwXJSWToCyQC9PHMmLqGPLqHLkQ8FISP8kRAf+5Jdpnt49m2/zqetQU9LhuJaO+oC1HknmXhcKVHCJrEBekLK1WGAD33PPyHhHcOmhfca8wMcNUB3x15iqwkMgxJ70K0PDnnBzc8L8mjaGZb0Z97PO3f2gauOuPAVSdH7rEqQiLDIMGFqC+4EKWjC5HcamekPb2rzo8Do3pBeui9So1KURIZBg0hF+Mh5GIx9/+s3gOklIZZbLc0RGE8hCgsVXqIqiARBYFeC//57iVzI4/EjOO8HtCFSOm5ob72qasOeBsEO0xYNLX3+OmQ4wAy7itfVEMiAxSnrp9vF5AxZx24EL2KIRfKTxBV9EAfokBddVb2n+0J556LquiXvhOqI5EBnB05Wf2ct05K5fLhYVStmuaMvH0B/Tes1Zhs7DfHzdm+23Z5GzeuNdWSyNB9cCGaAi5EEehCZJxCmXmKmqwhLUFsjynB4KozX83jUj2JDOelyenzliScThyBWYjUPJ1E6Js+q45fa9+1C9xC/JU891y8eLF9YWEhBMzBBYLW1vfs7OyOVjRCTZDI0HHqQjQmfeYP2TcONUYXIhEmrNpEgKtO9waOZxPcZw2FrDrHlOjenTt36u3fv3/4kSNHBjZr1uz4c8899yf0w+LatWst//rrr1e6d+++vlevXt+U7ZumSGToOOdClDl9DYZcKDHNJGhTf+5NcflsBIQorJegBaNEAklarF69egEQZRMQZXX5SkCw54BgI8+fP9/tnXfe8a9du/Zt+owmSUQ7XuJC9FtECJrEjZoj6nuInnvgPt1wx2DqqhNWVVYdKQdACfTNN99Ev/feex+98MIL55/W1oEDB4ZlZ2d7jx071kPTJDIMkoZcBKbOSoQsRO5oEpdymokoW2+y9rIf/FN0v+kfQojCVRGlCxIVHx+/3MXF5etWrVr9AoR6CVYkeuMDTZUFF9WSGpRYXbt2/Rb+vps2kJ6eHkz/5ubmNr8kF7egllVQiSog2SO2/06PDX1b12pUQFMeYVExAqAfx7otLmV5beqV9Hb0G2og0NmzZ7va2NjkUwLpkaM7tFrvvvvuJ0FBQR6w4rzXokWL7O+//34+EKwVfQbIEwnnJk/Y4tXXPIkM0wXSHGWc/uDH2olOEeO5b0t0q4BFPQjodUL1kz1yY3Mlfd3Kg3L8+PF+sMokl/n34qKiIkokugoROPvchDPSKvi1Wl5eXhPDcw4ODpvPnDkzmBkSGQZGfakK/LNtgtv4LCH3rsC3Btk84tUzYdXUE4o/6CG43ftxBeP22ajB1608PNevX3/J1tb2WlkSwe+UGyX8gNWqt6Wl5Z0mTZqUWA2fffbZP27duvUyXAPNXtGnP/KHkIvIMdtmrE+9ktENz0sy67n03LMNzj0f0G1bJKHHCPUVanWD7dzNsiQCwhSmpaUFwtmIFBQUNMjMzCSwrRsKq1LJeaFOnTpXgEStmSSRAQx9bEl3cCFyG5Y2LS33Lpxf0YVI+lkM557Wtq/kx7+5eAjdZicRekZXbwGjwQUgynPQw1v6XtKtnCU1JMAKxRk9gFCTUlNTg+DXqYaR5OfnN6xZs2Yuc9u5ilQFPlfpuaPTLcCFJJR6AeN5SaIJTc+hQCB67oHzaV1KIIlaElVso0aNzl2+fNmhjFALOBNZUwIBwc7RnyFDhoTB9yEnumoZnqP/37Rp031mQSLDoMEHa+5t/yP1JrTyXMmdl+iWA4vpCBhCFOAcWhBwRJXnnqcN8tVXX90G332GliUR/F6tbB1qXID/L4YVC25zIISS6dKlS63AFSjLrEhEB099sWL6h314/N10h+62L/8ftzJhEY4A4OfeoFPWqXfT2ke6Bfubko5XeCdMq0m3cw0aNDi/Z88eXyoJzkd/d+rUaWO5cxKBf0uhf6PPfPfdd3OdnZ2X0N8167FgGmyltbmsrenB6/EiM56I6l11dryxULUhCjxHROCD62pHR8dNnTt3LmvufkJMSkpKBPyjpYeHRwiSqAw84bviIsIORk/BkIsqpl5piEIIbI8j+U5UtT+v91Sw6N27dyJs1Q4a+gvbN1v4JtQPtn3DX3rppT3wsXWh4W9mvxKVVSq4EDWBrK1fQNbW4ZiFqNx0L80mqniIgtREhG9CvQ4fPvwmnHnawVmIs9hRzwTwWjgIH11XwPYvp2wfkEQVaCTr8pGe76dN33o674wt933J3AucexzrO15I7D9niFIhCkqpAMhjQ9sGMhVU1gck0VO0w138vGuGLpuMOX5foueeas+QlL4Rot6ioBQhpGoXSVQFsvQis892xi6IPLZ0vNlkbdXfohD+2sQICFH4VMkQBakmvphykURGokmztoIL0cbUP9O6MHte0odme73oWeKqYyQ8Zv0Ykoin+mkWInAhSmUua6vOVefW1/1mDwIP6308YTHrx5FEAtVfkrUVMtJo+rxUmk10HHhYxwuEw6yrIYlMUL8+a+vnkUfj/EmN+trK2kpdde7fIMEdAmI+dQoM1aKngQmqE7UqkkgEOOl5adS26Sncxc/UJG6hYud4/fce1//0pdlEhypxi4IIkKtKBJJIRHWUnJfUGnJRmk20H/VsF3HoZi0KSSSB+rmLn/fNnUcsrdRxy4WGsolKoA7JRSKJJIKYnpcga2s8ZG0drljW1tJsoqsgm2igktlEJYJZFWKRRBKr4XjuuQ6+26ZthqytzWTN2grZRB3rdzJLVx2JVfqEeCSRTIhDyIW3R+an6yS/5aI0m6g3ZBPdINPwzLoZJJGM6oesrTXg4udZYdmRIaKbxPUma8gm+jm46sxEVx35FIskkg/rkpZoyAVkbV0JWVv7m2wSL734d0us+wyaTRRDdWXWKZJIZsDLNkcvfh6bMet7CLmwERRyoXPVuQGuOm+hq45yikQSKYd9ScvgQuQPIRdx3D8YE3JBzz1QEvvMQlcdFegPSaQCJdAu0JCLlYe+DQzMippLHgJJLGvCD3xnMhTqo1cEKamq1yWx3YJCRnUaughdddShPCSROvTwWC8gsrbX4b9Odcst+Ps/+fcL6tSpYZPf0Ob5yx1faJOlphzWKoQOu4QIIAKIACKACJghAv8Pi3zSDKM1oW8AAAAASUVORK5CYII=;fillColor=#21C0A5;strokeColor=#006658;fontColor=#5C5C5C;" parent="1" vertex="1">
          <mxGeometry x="284" y="370.26000000000005" width="60" height="69.48" as="geometry" />
        </mxCell>
        <mxCell id="lZvOYTNsYxkt9xm4c5QZ-3" value="" style="line;strokeWidth=2;html=1;strokeColor=#3700CC;fontColor=#ffffff;fillColor=#6a00ff;" parent="1" vertex="1">
          <mxGeometry x="174" y="400" width="110" height="10" as="geometry" />
        </mxCell>
        <mxCell id="lZvOYTNsYxkt9xm4c5QZ-6" value="" style="line;strokeWidth=2;html=1;strokeColor=#3700CC;fontColor=#ffffff;fillColor=#6a00ff;" parent="1" vertex="1">
          <mxGeometry x="344" y="400" width="250" height="10" as="geometry" />
        </mxCell>
        <mxCell id="lZvOYTNsYxkt9xm4c5QZ-7" value="" style="group;fontColor=#5C5C5C;" parent="1" vertex="1" connectable="0">
          <mxGeometry x="544" y="260" width="300" height="100" as="geometry" />
        </mxCell>
        <mxCell id="lZvOYTNsYxkt9xm4c5QZ-8" value="" style="shape=image;verticalLabelPosition=bottom;verticalAlign=top;aspect=fixed;imageAspect=0;image=data:image/png,iVBORw0KGgoAAAANSUhEUgAAAOEAAADhCAYAAAA+s9J6AAAkMElEQVR4Xu2dCZhVxZXHuwHZZReCoGyOoIArKkExGh3RkegYBROjGDVBUOMOTkaZJGMERI3iOjoRFRkTjMs40YBRlCWIBmWLQEAWWZRF9k0Q6J7//31Vnfvuu/fduu/d17xu/u/7+qPpV/feqt+tU6fqnFOnSkr0EQEREAEREAEREAEREAEREAEREAEREAEREAEREAEREAEREAEREAEREAEREAEREAEREAEREAEREAEREAEREAEREAEREAEREAEREAEREAEREAEREAEREAEREAEREAEREAEREAEREAEREAEREAEREAEREAEREAEREAEREAEREAEREAEREAEREAEREAEREAEREAEREAEREAEREAEREAEREAEREAEREAEREAEREAEREAEREAEREAEREAEREAEREAEREAEREAEREAEREAEREAEREAEREAEREAEREAEREAEREAEREAEREAEREAEREAEREAEREAEREAEREAEREAEREAEREAEREAEREAEREAEREAEREAEREAEREAEREAEREAEREAEREAEREAEREAEREAEREAEREAEREAEREAEREAEREAEREAEREAEREAEREAEREAEREAEREAEREAERcCcwb968Y/jjfoVKioAIRBGoEVWA32/atKnB2Wef/d7y5cuP+uabb2r3799//Oeff364y7UqIwIikACBRx555Ob777//LgjgIbzdG2+80ffiiy/+3wRurVuIQKUS+PLLL1uiHzspn8qqmFNlOnTosPyTTz45pVu3bkt69er11yFDhjxeWRXUc/5BYOnSpe0HDhz4NN7BNHSmFmLjTgCzuYZDhw4defjhh6+76aabnnK/sohKnn/++RNRnXL7M378+MuKqHrVuirbtm2rP2zYsF/5+Per1o1OqHHUeuyrEL4vvfzAtF5Cj6i823z99dd1rrrqqhdsQyZMmHBe5T394HwSO8qzzz77Y38H4jtAx5IQZukW6K+10Uf/GbaMyV7hs7+DbYNi6VW1XCtSr169PZgODXvxxRcH8Jo777zzUXSE/2jduvWXmzdvbrZ79+56jRo12nLWWWe9g7Jlrvc9UOXwEurCuNSpQYMGO5s2bbqxYcOGO2rXrk1Nn8gHnaDW3r17a+3bt68W2NSlQWv//v2H7Ny581Bw2tq+fftVYQ/itPP555+/tnv37tesWLGibSIVOkhugmn6t9hHe/Toce38+fM7Z2l2Yu86X7TOQsgHPfroo7fbB7KBmCI9cN111z0FYbxq1qxZx/I7GG2+h3/ezLdihb7+gQceuPvee++9h89p167dmpYtW67DqLmtTp06u+2z8fse/F7KH/N76qs9e/bUtWXwO6c1FS8UwlaHQnf66afXxXd1duzY0RACWW/9+vWNPW1i+cD1OAxgQzt16nR/VPvr1q37dVSZg+17Dl6YNSyvau12EkIsahsPGjTot6NHj05bBzZu3HgLGt4ZHa2RbTi0yuaqAOHoo49eZOsJbdOaP5VVbxhWZnzwwQeBj3vyyScHutQDWvsbl3IHWZmi0W6JcoeQHYnp0w4z2lcYZsL+j3XjS5gStEq0EgW62ccff3wCfJ6/d21bUuVgpQvVdBjwGsEl9DNMk7dne57W5MGdAvwOxXT0Cgyyi7Pxo7GrQN0q9m0jNSGnoNkWsegM/8Knvv7665c+88wz1wHAD/kDa+o7J5988sxTTz31Q7g4lnXp0mUhRu+iWiti3TAHVf8BjB8TMa1+LowepqlTITjD27Rps5prSL5crO0acOrJ33ft2sVFPv/WEKwaoyM0w0B0+NixY38MDXuk/77G0BL4uGbNmm3DF4/hPmMwoI3D9P5fY7/Vg/gC8OPg9RL4vQq7xWj0yeurPA50qKbZRpSnnnpqkG0kQtq6d+3adWlQeU7BOEoVKxBqn7B2QkivyaXetChjjTfEf1/X+0HIuR7lwJUxA5EmjH4jjPQK04jFpAkjnfUYWdLWeNBw791yyy1PYoS+DNbFo95///2+EL7jiARhbe1gsOkYhAdroJ7QDNdFozswJRiKh2k3R9GMT67rL1qU77rrrgf8009aYl1aSWstBodbgsoajexym4O2DPruTljrJ/sBgN0uM7AVBZtIIYSAdbM1xaiyCh1157Rp0865+eabf3vhhRdO+eijj3ofd9xxc2EhvRxrrF4nnXTSfIz+d3OaiuiOMd5W3n333Q+fcsopc6g9acIvCgKmEpgiroe2nh5SJ2qknD/33HPPL/HiK6yZdFG43gw8P3Ytq3KZBGBpXlKluVAAYb5PizQwI0jF9AidZCE04+OYYv0E66DWNr6UDceaZry/vP0/rpsHoT25mABBG/4hqL5Y4/4o33p6p7tTp07t5Xo/s2slYzqKe5zueo+DuZyZ+qfx4yBYTBEzGdqIzk5OoTCtPBEarqv/BWLNt+zcc89lCFvJd7/73XdorKC5n24MOklxbcryB03YF/eagr/1D+oE8Ct2h2HkYwjq76644ooXeA+MWp8fyA4DX2DBzP4DBgx44dZbb32U7atfvz6NO04fM3UKKls9zfFOVNwL5bqUcH9C/iXThBBarCYqvSbotlgLTsZU8q9YB3bA+u7MrVu3Hgq/4Q0si6ncpr59+74GS9RPIHzzLrjgggmLFi06Gp3uIXsvBn4jAPxvnB5wJPJYCEs3bNjQCgJ7BKavva688soxPXv2nIF67M+/ecVzB1o9qdUWLlzYDYPPXNea1axZc59rWZWrBgTQSbqgGSnVDQ31Itd0iCTh+qUc09K19ruof2kRRDTNcK4T4WfsgPUfw7bS1p/cGuX3J2I6+CrvDa24jJEjle1vRJv/J6htSUxHc+0eGPTaBNUpzpQ212dXh+vMu0ubjmJ2saOYpqMZnCE8/4m9gv/HHwjeuiiBs99DYP/bCh0FD41sGPYS0YF6cGuJ93tCgYbc638ejDn3VlZnkBBWFunKew4d9/4+xUCIYhLCiukoDSqIpRwGN8JAOJgjI16gIXdcf/31j2GaORVm4PdnzpzZY8aMGb3pqIbb4gL8fTI04OMw02esszDdnIPpZto068YbbxwDMGnTYwhlCZz8SwjynHPOmYApbJUIiau8LqYnVRsC6PyHwuCSNcwHa8J3oSXvo/EFU6T2FFpGhVgI2TRfGCgI6SGwkJ4EA890WA/vgAbtiDVlH2i/X3tHL1oWoWmfLDRwacJCE678+wdpQvatYnLWpzQPDQWLFy/u4EUEofwMVrwd0HAnQiju+8UvfvEraC9OFys+6LSPY/12Eq5tb+JLIylD0Dp9+umn3ceMGTMQWvICXoCp70QacfDD/y7Dz9sQ0HuNdu2FXf2nwagzB38rxTWyCkZSVoEqRQDruO9brQPf3QJuRaIhhY2A/2+0/c4bnoYIkIfx9zIYco73+gV5DV0c0JTtqNWw9uuN+11MDcpIG8zFafFMLZIh5Evgw7kOFtfZ0HS3FQO0JDUh2HTlT77tCjPMKGzNjWxV0IQljOmkUECwfsNm0SpJIwt/91lLXzZxpCWcenLHN7Rfao0GwWsOQboVWnG1FTL/vxDoxwDkKsaXcvoL4U1pYUxHT6Ql1Q1pYUtlEUIu7p0/GICOsO3HQPRt5wsDCkoI86FXUlIlhNAjLCXQdtzLVm6Fjc2nVuQ6Dd/d6F/3Me0hhHcUigUGGXMnBe+XLWCZc3MI6BP5oU7m6qSEkGkVLFdul8qndgebEKI/1GHWAxO8ng+61LVVQQhrYYpYgp9t2PldgnXaTaw4YkMZEpXaHQ8hrAnHe+cFCxacACd9b/zpB3Q6jxs37mqkaBiK/1fEVcJiuq1JkyabsUZsR43KyBsaXyZPnnw2U80xPjOAKoW+Sd60C3uDWLGj4HSGrQ5mB58VtmrJ3R0DxvFz58498e23376AOWYRkMEdNKUtWrRYD+v0xH79+v0eUVQLk3oiZ1Doa9958803L0YMcs8tW7Y0a9u2LTMVlCJzwG64yL5GRNYq2APm9u7de+rxxx8/O8nnB7WDg97KlSvboR9vZFAJg/pr1aq1D/8yy0JhPtBCXN+VU+Oh0V/ZEdw4y1tjTXeh/RsqQqc9BSl0cy8akbF/LqjmXDNiPdqfgdzQmG8XpnXx7sr9e0Fti+usxzp3pr0Po5Di1SK9dKE1IVMn4l3fiQE063u17QGjsXYpkWu7ODD7s8dl61Pe7zAj+2mc58bVhLBVfOp9Hn2KzJ0EPmuhRFaj/y8P+VmBAffvfv+3U13xkpnWoQzTyodgpZzgCsNfDhtf/8KR1OmhKMR1IF7+zxmIjIYvcL2ukOXChDBsOs2pNDrxYcw+gNnBsWw/OI6wbNCuv+WbaLZQQsh6Y+3/X7m8b0ZT5foe+FwYAD8JeC6XNPYndJDnIBDn2XGF0Nw/MoNEGLecA+utcQYSH7i2C3sgd0HQyGKtqa5wON+Hb3AKraMQxnsxgnAj8AH/hAkh20+XDRNCYTTcgFFxM1hxa1LWl4VB7Y18G1UIIQzbwIx38Us8ry0NcszViX7BRDiBbYwz4FoGXNr4BZADFS301Mh21kBtwhkY+sh7/uezr6LP1XblGlcIeV9Ok7GuP9eb4jPbu8ZM7k8c0IxNxbVq6eWY1j6qQ/F7k27hewxLowU1V6nny0CHXs1YUabYh8rfXQzO02xC6MLHX4bZsnN7I/+4Kkkh5DTQDAwZgmWmhxnVxXLlkaC2M7wxbtv8ws+pHwfxbPcJEqI42cdzEULPoFGb09Cg9rMtnAHFZRBa3kyZAkc8BmNjVKBTPfU9Ryj6v9DBnsWoNMt70zj7A6n27VoLI8mEyg7WDoKRtBCaDpzXe0pSCM2gkPGeuebx+3s9HbGG2ZCcdh3e2Z/jNIzai1rP26FN6o/I21Area+L4/bJRwiDUpNQ24WximxIVAEGbAdJPMAtNIe/pF4CXkjalBVAzrT35m56ri3jTk/p5qB2japjob8Pc1HwZZgghCNQTwYitOMakDMBOs05daNxw88vW1Y117YkKYRh2ty4VEKrFNQZMQB/6NoGluMUz//8sNQdQfc1BplUHwzT2kHXMelYULujMnD7DUeUAa/rLk7bncuasyViL0jRSeiYTn24s54NNtOO0Gf7A7URFjfCm0bDudIJFwwTQtdzNyCczJZdMUglsQMkSSFER3rN3yFdtFGQNoEFOFbaDcMmrX+Zgd/5LVqjiREsp+viCiFnhf61YF5rPYdaVuxaQPzoRw7lU0VoUIHPZk7Hjh2XMxEU5/X09cHH1JVZkDEtPS3bvTD9SdtBgeTBjKBh+sCi/KBuFRm3s1UQG5ZXM5II6RN5ZkcJ0uCnjpLL8xPoo2Ra/bj3fe655waMHDnybvh9j4Xvbd4ll1zyqkn7mPVWQbvTDznkkLQ44qi6IOa3IrO5LcsQSXbwwYMHPxN1Pb83RzAMgJC4FI8qk8GVOV+ROX0SY5bNxeWc6WCT+rtRN8vn+4qNtuhAgWcj0ADDVBX2IUxHgU42Bi9vFgWQFi3uqsBnBSNq4KjvTLUdx1+Css2Ru7NokrEGAHUOGkfHfg1T9tT2LTifm+TzcpK+Fu9rx6hRo37OeN777rtvmIsAJlWHsLT9EMCnaSwq4AnQYYEWae+Uz0cfXu0VQIZUFloAM/iGWcKMC6Ec36dypHg/GMl+hunnnXixl8CStB0Wz9fibmtiMik67pN64bneJ6kAbmtaz8efZttAlwF+z1gmGIt2rk2NdV3QdNS4tWLdB8L2elBb7N+YdjIX10e2SmQxzFScyoS+d6mvXmVR6+RYDY8onJZyAmD/ElQe2i2VS5S5Zez3nDtz6smpCkKcOmFt8e+rV69uhvR+90yfPt05mxjvd8MNN4xGZwvMV5pkYyvrXtdccw2nV+XQPIxAqvKfjRs30qiS9vEekOPawDvuuINxxqGfl19+uT+1MwW80LtEMJ1OLYnoarn88stf8VWqFJrxBNd2JVqOVj/fiJAxAnM3BKaoLzA9O/OLAtgCaLIN+VSElsYktEY+deC1SWlC3iup9AkHUhMygzU0yeVBfcKc+xcbebZM5/7nIDBiratRLKwiYZqQf0cbMoIBvHWgRTx2A3O4IE0TYl24wt4DAAJHcWRYuwnlFmHa8G1szj0RVrIpSIfRPCpG0nSmEq4VGbpkn8OIeWpSDABH5VD/or3ERNQUbf2CKsYtWPQD81hpDKyfcw2JgYkH5mR8SktLndfJ3ouxcfsxV8Gi7xha6g+oyyq4g3omCZMDLtKwnJ3tnlivMqyv8j/USMx2xn+9/kE7QkD7/ZutFdPhMwW+P+oBwM7wB3LbUQXWw2uZEMreg9ukmHmtGHYbJKkJk3pzhdaEDFGjjzPLyVth29TyCrrnrhquAYO0bNjfTFxuLLRhmtD7DITSMegk0D1nro/1zLwLM4oFU8yPKSwmMiGtctZhaebs5dw9z7Wh15FJUzKDs70CayvGzb9sMAWVf+O1/BcCwCPVKu2MwCBQB5MQ0hgBDcOZT0bnYwQTXQfUPgzNwvLjKX+5pHa+cL+luZeTjzpuKGA2IeSuCGsIwgyAp4sF1sHrC89bwFxuYOLhyrnViBVExMzf/ZVjpIiJlKEwfQffl3lDebh7nmtHXuffBkTh5t+9IW7MYcO/JZEOwqWNYWUOBiHkwAqtx+PX0jocQ8rYEYN2fXi3s9nrkhJC+y5oF4BmfNlFM5r6OL3qMCE0s7y0e4RpZia9dnpYwoXKGVzN0J6QRpTx2C9uQYIwnQJ1zj1YJRRECFnqpFnuOoBGZabpNOGyxh/r7qAmpGWVmhPa9fyE2xHrdtVdCINC68xAydCu0E9QgH8SO0SCHsjpd9QWKwwAE1133ocJYZB2M7aKQG1o9t3G6k+uhUPPTYe5+PtMeR9knqYvkMd+YVf0aXCy14F/cBMFsE+fPlPhyH+auWSGDx9+O1wa9si0CvcDjT8UOFQwFa3DgzVvu+22EXCULsVCmWkh9CkAAU4vmenAf2vOahiAke2Ru3fvdooYSqLadJjjOIVBDGM0a7WM206cOLEPjk5okc/zYHTa6L+exkhGPAXdFwbJW+No4HzqlrrWngTENR3XfBwtg364hjNnSmR8T4MNs6hx2hm0Q8K/dYlhb9CeFefI592IHG5QlTShq4WRGMzhrBnvKGhKFoQtwJldHlcTWut43NcSNkV03Ubk4qz31ynIIGn7f745g4LaH6gJmccD2m0LRs4RZ5555rSwAyk5jWQCYEw7mc6BpzRN5RYn/g63Q3uYox+G8/UTCCrT6ad9sC7hQY0VH2jW1P8ryzcTBGPPnj1FG78at/N6y+Moc6a1zPhcdNFFTpuOg+J64zjr6fqAhltl1nyxmoKBPJX3yP/hceWxbuQrvG/fvtC0I4ixvdIIXcYj0J9nmyVVPo9Puzb0kNARI0bcwZIMJ3vwwQdTv/s/9Bnyb5h2nsoY0/fee+/M0047jSkUS+NGyDNdPqYfc5YsWXJ0Yq2LeaPqKoSYurUMQrF9+/acjy+Pwwr+5NSyBEucfnF2QPAaThGNNkxrgjEuRb5hbA4IOxMlNHkX/aPZwtawpFqepLIIFUJk1uKBmSVwlo5HZDnD2QKds/T50d2ADF2XMnMbPjWwiKVJO/bnvPPOm/Dqq69mNRLEvqnjBQwiwLFlPJWqqD779+8PHLEZ9O5a0bCTgSEUTvlUg+wCc+bMOdk14RNCGysyldEVFWdTLtuIpUsTb1sZSOAqhBAWnmqV8Yla5yJwe1KWbV6lXIYlrRED3yePRmP2bDhJHwhLgEMjC783QlrO/0OjLWJYm2snseXoa2RquYLtXM5SoSCfqG1TEjvk47Kw5c0RaGE+NKfbBrkYbNuinNEwVFxty/r/Zc4dbn7l/jv8vpLfm8RhafXy5mG193Bd0wadVAyXlnNqDVpSg+rv+nxoYUYMhfowza5/p/eQUyH6blgBvMSL4CsJjCrAS+T8OeWeQMN+QEMOXswIxpfm8lDE830QJ01GLs/wX0Nzt9kpHgqbo2Lc3SFJ1C0sJwzfC9dYdBVFPYc5fbJ1JBoiKKgUeAoMO2hYKoxs9+F3QYaLsAGOgdp8rqlfRjPYwY0Wr3gvTEHomqfWnxbDW3dEaC12Me6gbjXC8szY+xVi90caDDoqKVgMZQt7Af6wNe5X49kTUZ3D+7055akVOvswdIDn41yba1labemgzha25G8z83Ni5H8eGmJAIUdBCkNQtrGgd8AtQjStZ1vHxAmc9j4D06415trITHxGa2a8jiBtFtQO9jW0+V0KSEhf4/knx0S9bwp9nJA4ajsmHAvbRmUSS0W239aZkTiJxrpyvcejrs3G3lBNgSnpg4yysYCoDTGiXkE/FNdbzK7GY9BsuFqANqpF7WkicHh0VV7Wr6gXRehRo7rL91GpPKLqEfR9nDAufx2zpauIcoJ778Vtbd61G95d9zAe1KTZEnUxtT3cT/NceIaVcU0Gxt36+TwnaDrNdwTh74x/nAUxTh4cpz7CGEMbnhbVQDp+eSoTbwxw01jeu55k9IUJact4Np5xFjUipqQzOLV1qlyOhfz+I+bYZGfiFI9TMXZY1psjKqeEzKkCLViRodxwKEt0xPtHWwJfNrUwtMQiZvjmD4Pe8bPE+06itDO/p2EjTNMw9yg6XKCFGoJIK2fFQMwoEnNokNNbYJ4Z5hjlGpJHVkf1JXZ6POM35rlOzwhL38kpJUPzuH2Jmo+zGfvDmQSnxmD6EQaM0JQkYHdOVJ05Xca9ptEt41Rh10LUZlyEmxwfroG2z0E7puJHvT/QHLdzukmDT9DzzVqyHFPEhVHbo1zrX9XKcZ3HBE+YQTQuVN05xaKm4w87ecx0JImlIqHm4TSQ61H7Q8E2AQY5NR/X1kP7mnKbXE43yHIR91iynpwWk6HLmjyxOkAoZjMcjTGlUaMBv2dKfSyqmdwnTQgxcn8BQWMqc8aUdvNW0Bh3fgSB38zvrdEnsUboRiJQlQkYS2kZkzoxWWw2QWRwtl0fMrSN+WeCynONGMSE1i+o9ZTwFjzXY1V+Kar7wUeAG32hCV83+/4C1y2Yc0/xCg63J5kQtZRQQcut5U6LKDcE/YwIOr4BGjV1RJs+IiACIGCEi7kYz8cCu1+YNqSl1AKje4OC5y3LKW2UQ95aR7F2HAmh/YlegAiIgCFgUpeXZ9OG8JNssht0KUxm76B/E+ln3PzrApaGHNeyLvdTGRGo8gQgZF/Q8EInPc+q8GtEmHrnYio5yBdbF+pjQdnrs0HhTg26Bw5ExEqVf1lqQPUkYKya5dxhQZMtWhkoYBREezgMQ4Ssb8gcPZymGVF2cDZanJIimmJ69SSqVolADgR4uCc1ILUhHaph60P+3eaZsU575itlBA6c+ZPsdbSGRllCmYCKJzjlUF1dIgLVkwDP7uZ6z1g6szrxGfoGbXeTjUGFAL4Po83Z0KY/wpT2SwjhPpt5zU+L01CuCe2pT4U+Jad6vi21qloSML5ABtV2i/IdhmlKCOAqCOLVELRG2SDRokohNL5FnhXAgyP1EQER4LYXGmeYdS1IEPG3nUxpyJ33PPjFK4zWIW//xlC2sNyj1IQ2G7TdGlOIfB96oyJQJQlAwJ5hUidW3iQFqjDUwKq5we+8h1AOZzAyp7Io/0OExC1gUikeyw2BXmaEsZUfBjRvJxtPijK/pvDy+KoqCU2VFoGkCWCtR22YCkML2opD/6JXy0Ewm6FoGR37/DsPHoXb488odxf+ljL0mI20gXlQWN5qUAaYJ90e3U8EqhwB67znvjImwcm2RsQ0dL9/jcjcIwh5owsiw8ATpu2Y/9SWh1BeU+WgqcIikDQBo5HKrMYzGxudtj4xORQE6Xq6IYIEMWjXONMiQOtOZnlMb3cz3aIc+km/Vd2vyhEwSYXKuEeMPkSs9yJ3VNNA43fgIypnG/yLV2Nq+rDd2hS2Kx9rzBFWcHlasKanVa7bqMJJEzC7m8s4RWTEjMmsHaoReZYfNwzzB2WXW4GyOy0QBleRcyRMwLgepe/RXkutGOX8T7rdup8IFBUBOzW1G3O5rovKaMYIGp556J2OMlyNTn38O5haMWpHBYXRngjF+zCXTJK7n+2u96DTi4rqBagyIkAC1plvdl6koLgef+VfF8L6yjTqr0PAHqc7A8KQOlAm7ENhoSY1vkXGufbLVxi9eWnMUct60SJQ/AQ4JUTg9ftMK8jpqd0K5ReyOP83Zxw6N95aUbH23AsBHspTYp0vNgXN0VgVU2qTrS3ubVReBA4cAVhKmTXZyVIaVQ7T0vvjtsS/p5EamYHlLutGvwAy/Z5rCvi49VR5ESgogaCMyP5QtjABRLmdWFP+HdbPlCDTkU+NaPJMVtSbOS75H0bW0CjkPUyS61QEBPyRh4zQGGSfxcNrTPLXE/xTVgj8SG+dmGYQgps1zrWgEHVzEciXAJ35dksT1lVTaUThoTLMTROlAcO+t8HcTJXHtR/XbjQCYfpZxnyhDHHz5rSBoJXSx2g2E2doZ55fQCEPSgWPv99FBhRw+iSDkhRT8FGnPtKW+faWg+P60OOhCt18Ot/h3xvF8wtx1NQSnIk4hzvon3jiidtnzZrVNc7zodk2QpiZi4ZHtdVcvHhxW17PcxHxt6sWLVp0DM5KHM0YVZwKPJJJfqEJt7MMd//jaLczXnnllf44aajHihUrDvc+m8e11a1bF4f47K6H04kO83/PshD02ZdddtnvunTpspCn/eB8u5/iNNnzMBB8hMHlnRo1apTxKLEtW7YwVK+8VatW64YMGfJr1OGbOO1UWRFInAC0SW0aaqi1GEPK3fVMIkW3Bg8czVUz8jr6Jm3axaADSbg52J+CA1qtntmrmNKOPFPDZgbgNJUGHebOgVbtgXp+zyYqzlZP+iupPekDZeJjCPV8lteeyMS7U5W94QHThF5i7NzolD+bNGnSeUzvznMQcD7cW0ynz1A2aJaBEJDa3GGxatWqtvw9iji1E8+Qg4adjfv22bp1a4sBAwaMGTt27LX493mcQvwrew+UnYNnTlmzZk1rnNnX3/6dG415SvH69esbQ2vt7dy58986dOiwpEmTJlBqWxq/9dZbfaNOjLXBB2hLR5StqDYHgMGDBz8d1Q59LwKVSoBp36EtboXxYyk1iF3HMfyN+WywthtOZz2NMdzuhGnln9DJl7poTAYC4OddCpYtzzUj7jcoLHDc5b5xy8DAxAzkT2PgOaxS4ephRUugKDShnw5zkn744Yc9x40b9+OVK1ceASGZhDXXeGi2tfPnzz+Gmo3XMOsbz6+bPn366aNGjRoalzIEYj3OXt+NNeSRca91LY9p9RScDf8apqGfQINuwtntK0wyZNdbqFw1J1CUQuhlznXjzJkzT8Ux2pdzetqtW7dPO3bsSO1X0rBhQxxJvqMBDS+YHjZdt25d66+++qoVzmhvtXbt2m9RS7FMmzZtVu7ataseBDjwtKF83zGns9Cyf+Q0+rDDDluPtehRL7300pXcRQLD0+x876/rqzeBohdCP34eOfXFF1+0mTFjxhm0am7fvr1RixYtNkDDLG/evPkmlE+dJ84kVPXr19/VtGnTTTzocu/evTUhxEfi2iOgaevw7/iei7RSCOihuF/vhx566B6s/7Ke5EOLJq79CgPBMgjem1i7vol154Lq3U3UukISqHJCGAQD66vm0H4tKVzQhC2pGZcvX94Ra8zm1Ib16tX7mlNBTD33QDPuhPbkbn2ma2yEMi1Wr17dftmyZf9kNOf2xo0bb6VGgythDdwnn9F9Am26CgK4rXbt2nvosmjWrNm2Qr4Y3fvgIVAthND1dfEMPgheE/x4z/0rZVJiCOouChf+3cMf13uqnAiIgAiIgAiIgAiIgAiIgAiIgAiIgAiIgAiIgAiIgAiIgAiIgAiIgAiIgAiIgAiIgAiIgAiIgAiIgAiIgAiIgAiIgAiIgAiIgAiIgAiIgAiIgAiIgAiIgAiIgAiIgAiIgAiIgAiIgAiIgAiIgAiIgAiIgAiIgAiIgAiIgAiIgAiIgAiIgAiIgAiIgAiIgAiIgAiIgAiIgAiIgAiIgAiIgAiIgAiIgAiIgAiIgAiIgAiIgAiIgAiIgAiIgAiIgAiIgAiIgAiIgAiIgAiIgAiIgAiIgAiIgAiIgAiIgAiIgAiIgAiIgAiIgAiIgAiIgAiIgAiIgAiIgAiIgAiIgAiIgAiIgAiIgAiIgAiIgAiIgAiIgAiIgAiIgAiIgAiIgAiIgAiIgAiIgAiIgAiIgAiIgAiIgAiIgAiIgAiIgAiIgAiIgAiIgAiIgAiIgAiIgAiIgAiIgAiIgAiIgAiIgAiIgAiIgAiIgAiIgAiIgAiIgAiIgAiIgAiIgAiIgAiIgAiIgAiIgAhULQL/D2EaJRhSqQjCAAAAAElFTkSuQmCC;fillColor=#21C0A5;strokeColor=#006658;fontColor=#5C5C5C;" parent="lZvOYTNsYxkt9xm4c5QZ-7" vertex="1">
          <mxGeometry width="100" height="100" as="geometry" />
        </mxCell>
        <mxCell id="lZvOYTNsYxkt9xm4c5QZ-9" value="&lt;div&gt;Img 분석&lt;/div&gt;openCV" style="text;html=1;strokeColor=none;fillColor=none;align=center;verticalAlign=middle;whiteSpace=wrap;rounded=0;fontColor=#5C5C5C;fontStyle=1" parent="lZvOYTNsYxkt9xm4c5QZ-7" vertex="1">
          <mxGeometry x="20" y="70" width="60" height="30" as="geometry" />
        </mxCell>
        <mxCell id="lZvOYTNsYxkt9xm4c5QZ-31" value="" style="line;strokeWidth=2;html=1;fillColor=#fad7ac;strokeColor=#b46504;" parent="lZvOYTNsYxkt9xm4c5QZ-7" vertex="1">
          <mxGeometry x="100" y="55" width="190" height="10" as="geometry" />
        </mxCell>
        <mxCell id="lZvOYTNsYxkt9xm4c5QZ-10" value="" style="group;fontColor=#5C5C5C;" parent="1" vertex="1" connectable="0">
          <mxGeometry x="544" y="430.94" width="100" height="99.51999999999998" as="geometry" />
        </mxCell>
        <mxCell id="lZvOYTNsYxkt9xm4c5QZ-11" value="" style="shape=image;verticalLabelPosition=bottom;verticalAlign=top;aspect=fixed;imageAspect=0;image=data:image/png,iVBORw0KGgoAAAANSUhEUgAAAQ0AAAC7CAYAAAB/9svUAAA3UUlEQVR4Xu1dB3hUVdPe9E1PNr2QQhICpNMSOopIFaSqoDQLRX5BaYKABfWzgH4qKPCBIEiz0buAEEpCKCEhJKSS3nvb9H8mu4vLsuVuzWaZ+zwxknvKnPecM3fOzJwZFoseQoAQIAQIAUKAECAECAFCgBAgBAgBQoAQIAQIAUKAECAECAFCgBAgBAgBQoAQIAQIAUKAECAECAFCgBAgBAgBQoAQIAQIAUKAECAECAFCgBAgBAgBQoAQIAQIAUKAECAECAFCgBAgBAgBQoAQIAQIAUKAECAECAFCgBAgBAgBQoAQIAQIAUKAECAECAFCgBAgBAgBQoAQIAQIAUKAECAECAFCgBAgBAgBQoAQIATkQ0BPvuJUujMi0NrWotfYwjVraW02rmuqsa3iljlVN1Q4VdQXe8B49Ksby1xxXGwDizIjA+M6tqFFuYWJVbGNqX2uuZFVmamxeYWxAbtOX8+grTOOn2hWLQLENFSLp9a0BoxCP6PsfnhxTZ5vWtm9ISV1Of4FtamBNQ1V1k2t9frNrVyWHsuwnV4Dfd5vYCrtv9tYze3vjA3MWFZs2wozQ06Bu1W3O+5WPndcrLzi3ay6xtmaOeZpzWCJEI0iQExDo3Crt7PaxkqbguqsHpczjs7PqUruW1af262xpc6gpQ2ZgAELJIX2H3keYD5QvJWFbeBjpG/KsjTmlHjZ9rwa7DTkT3+HsAvWpnb50G6rPO1S2c6LADGNzjt3jyjPLE/qnVwc+8y17GNv5lQldkPJwUDPEBiEkVpGh4wEf5paa1kO5p6l3TgRJ4d4j//Rm9PzBjEPtUCuVY0S09Cq6WBODOop4PgRcSnj0DvxhZcncptrTfT19NTGKCRRhsyjpa0RJZBmdyv/G0O9pmwKdRt4hG1oXsd0NCAh2YKuheNg7pbGtA6V6zgEiGl0HPYK95xWGt8/Kuvs3Misg3OhEX0DPWO5jx0Kdy6lYmtbEwsUrixfTp8rY/3nftLTqe/fTJSn55IPLK9sKOkyJWjRO+qgi9pULQLENFSLp1pbK68rcr2SeXTB2dQ9y5pbG9mG+sZq7U/RxoE2FtDW6MvpdW566LJFIEE8lNQWjmlT1PKT+P69Qd8PMze2rlC0X6qnGQT0NdMN9aIsAiBdRHx//d1zJ5K3rYEjgdYyDBwnn5kZJ5ZcHfv5P7NugiTxDlpzxGEATHBOekVMSFHtQ5+MssR+yuJE9dWPADEN9WOsVA+42f6I3/Tlpqh3/y6oSe+J1gt5LSBKEaBEZaQVjit2fyZ+8932mHX7imtzvYSbw3+fTvl58WCPl3fDOFvu5l8dq0R3VFVDCBDT0BDQinQDorsbbLaDp1O3rYDNZ66txxFpY0MGh8zjdv65l0DqiAGJqV2aAMWt+b7YDd9bmzgVTA9d+nY3u76Xb+admgJ/ZyuCFdXRHALENDSHtVw95VSmBsNZ/8yd/AtTTA1tO410IWmQPKmjzn77rdW/x+ZFjj2Xsn95dN5vL0wLeu99sLTUhLuP3ldYl+iaWhI/SC6gqLDGEeC5AtKjVQjA13jAj1HL/yjj5rrgZtOVB/1GqrjlHv+7ufJQXXNF26Tuq9aHug5uV4L6O4RedjLrkQFHlDHwz791Zcy6OA6SNLRsVsFRqw98jQ9VNhTqFMMQwIzHFWAYRs95v75pXI85Xwj+jm7pwU7PnE8tuz0MjmXOWjYtRI4QAsQ0tGg54JFk641VhyvqSxzV5c3Z0cOtby5n9XefuOeV0CXLRR3AwlyHHAaPVq/cqvTAjqaT+peMADENLVkd6BW5N/ar7eXcArfOqPCUBSN6jtY0FbMGdnlp28xeqxeIczf3tPG/DbdpuRnl9wbIao/edxwCxDQ6DvtHPaNZFRjGltSym311k2E0oat5y1i/hV/M6fPBPJAwasXBDkeUfC+bkHu38y6O14JpIRIkIEBMQwuWxvmU35eAlWQa29BSC6hRLQlwDR8ut7VVze+7cSK4ia+S1XpftxGHHpT9EwY+HO6yytL7jkGAmEbH4P6oV1B89jqc9P36zuKwxRQuvIeCx5Egx2cOfzBsz0CwkhxjUtfXPjjSxMC6LjY3cgKT8lRG8wiQyVXzmD92LPnh2rLP4UtsZqgvX5yLDiRbateouwB/DJa9uVvei17vbBjuN/U7ea7L25o65HhZhyUml94ZBh1t1tZxPs10kaTRgbN/PfPUnKSSqJG6oMdAZoGWEWAQlSN9536xZtivASO6vfytPAwDpwIvrAU49j+fU30fjyieHTg91DXpNLRrDaC15O+0/cswBkZnfvBGK7e5GplFNVhG/rfu2X2hkwIXrFbmtqq7lV9ceX2hTWF1tl9nxkZXaafjSQfN7KX0w29nV8V3RxfxzvYgo2hubWgn28M66GZv12f/6O8xeg8vbugHSg/H3cYnDhppyap40At+k3eo0oiqtgFiGqrFk1FrGMtzQ+TCV00MLBiV76hCgvigoHNpZxIYcNhQn83isN3SAxwHnQxxGXjcm9MjWhmpQtzY3K19E1afmViIcU47auzUr2QEiGl0wOqAC1uTi2oz/DXp9SnMANpYEKKPH3lcMHxkCMIPMLRWiEZea2poWeRk4XXfzcrnnoul1wPY0HFdbPzuyqurkBdmX7uwuxDG8Bm89Qp+HVx561N59SFATEN92IptGWN7wnX3Mfj11leTOkMQ+FdYOoCLb7WWxg7FppDHxMqEUwzKV66pkXm1iQH8GJrUmxlZVsJPuY2pQ5ahvhHX0sSm2MzYssxQz4gLeU8qYePWaxIqZwvPxMisvBchP4s99Jujyb6pL+kIENPQ8AoprSvwii+8MlIdfhnoSIX5TCyNHau9bIIi/exCr7padY1HM6a9uUuGqZFFlbolBFXB6WHjf6uhpdI4tzI9mJiGqlBVTTvENFSDI+NWkovvDAdrg7mqvD8FfhF4vPC3G3hhgMfYvd0cwi6CpFCgaemAMQgMCjpZdnkATl71xTW5PgyKUxENIkBMQ4NgY1cJRddHGeqbqKRXlCzgqR/mNeOnCI/nD/rYBd1gsX5SSdvqbAT0FGbQfps0pmZmZFHhbOFTmF2VjBYUerQIAWIaGpwM3CxfXnorQNmjCUoXdc1lrO52g85PCfy/1Txm0XkeOHKEOFt6JCLDk0Q1JHxqtDFxKaxuKKfYGlo2teQRqsEJwfN5BbfQRxmmgT4S6Eg1tefK5SuHbnuuszEMjHv6oPj2EAZm2jYLY9uyqoYyJzBRW2lwmqgrGQgQ09DgEgFLgGNza5PCuRJ5DEOvesmATc+N6T5rgwZJV1lXd/OvTATlbJKsBvHoYmZkVV7fVIXZ1zqfB5ysAXbi98Q0NDh5oNTzw42vyIP1bNnOqauG7o7obNKFYLzoOh+ZeWSSn33wZSYYWJpYl9SD0rihuV67veCYDEaHyhDT0OBkcltqbNGxSt4Hr5mDz0Xz630+mQHOVfflra8t5X+L2/Q5uJyfhKNJOROawG+kBCQzPXBEU1g6Y9IPlZEPAWIa8uGlVOkqbiU6Ksn18Dw5Wc1vh383obNKGDgAyLK24Fr2n+MVOFa1yQUYFVY7AsQ01A7xvx3UNpU56LHki5uBsSme8Z6+URDqX4PkqqwrvOK+8+7Sr6cFrPhEZY1SQx2GADENDUEP5lZ0zpDLcRz1GBDMJnu0/2tfaohMlXcDDMPjm6vz/wp3nfbX4K4v/KLyDqhBjSNAfhoahLyppVkuvJtaa1kDury+nakOQINDYdzVzzc//vZB6cleb/SOfVPei2d1TdV20BF92BijrZmCNCGawZkFG6YBTYhMu0NdBt4hGeQ5fjvTOtpUDiwl1t9dfffXu0UnJs0J3foe6GNuy0sf+Gg4W5hYceHiXIW8dam8+hAgpqE+bJ9oGUyIZUytJxDynxXkNOSotaldgQZJVElXmJJhe8xHW2MLz8zoYffcqWd9psrN+NB7FrxBHfXaDJvgpq1idmqVjIYaEUVALnGZ4FMOAWsT+1ymLWC8i54O4ac6y61UwbhQh/HZxbm70ytihkJMjsL54Z/Pg+NVNdNxC8rB+I0Lax762Zo6Z/MigtGjLQiQpKHBmbA0sS000GPGp/FSm4OFa5oGyVO6K2QYP0atOJhVGT/UUI9dOzt0/dsOoMhVpGHwArXBBNhwpCtWpD7VUR8CzFaw+vp/qloGJpAK0bqaYNBSnZXQmcvG1L6YY+qU1VkAiso8M+Wj81N/amlrtm9u47bM6/3t7AjPkX8qSj/c0wlsaKnR97btGaNoG1RPPQiQpKEeXMW2asXmFIBir4TvsCWxZ4zqxTawKu0M+gzUX4Dj1sIdt1eBOVXfHjY6CzLCbwCG8Ycy0KaW3h0EQXhMOKYu6cq0Q3VVjwAxDdVjKrFFENUznM1942QxDX4D6Amp1d6QkOW+5/oLM68fTPh8MwQVMmtoqWJN6vHe+5ARfrUysGJIxNt558fbmniW+juERirTFtVVPQLENFSPqdQWu3ICYgTh/xl0LZczGIP2VFbkZNIvSzdemX8xvyalH6ZhwBSMz3jN+nps9zlfK6u8zSi737e4LtPHwzowFpNCq4xoakglCBDTUAmMzBsJdh502NiALbUCJlDitlTZ1jfVaF0ciXsFUcPXX5h19ff7X25obOE6GugZY7KkhumB6xbOCFu6QlmGgcBEZZ19FfQixkFOA88yR5ZKagoBYhqaQprfD8S+THK28IMjCupDxT+Y2qCKW25fXl+sNZnT8Siy987GbzdFv3M8tzpxgIWRA2SDb2HBkaRpRvCaBZCCUSVxBsEC43Uz79Sr0H6Vv0OvfzQ8PdQdAwTIesIAJFUWAc/QWlAc/vpXYvJX0lIYwEU1w5yKNIzEfU+V/cvbFjCLgEvpR9766MKkhXosQ0NBQGRMxehu1ePW7F5r53radseMaCp5LqUfml/RkGcb6jTyiDeHLCcqAVXFjRDTUDGgTJrr4dTnDDvFfB2I9xaSQv9BjExWYvHNkfA13w9lNK4QTSuN73c54+gbX15+fRowCGsTAysMM9guXWB80v7uE3+dGLBwDSh3M5mMmUkZlDI+uTB9EZYNcR58vCPGzYTOp72M1iradH1iQNTfFpl18E1IYiR2qHwLS92qobvCIfCO2qUNzGQG4QidEgqiR116+Od8yDMbCpIFC7KstTMLfFC6gFu3WSN95qwf5jNJbtdwaXPKTyK190busVe6WAXFQPzTYSCV1en6OuiM4yNJo4NmbWjXCZsgKM1M2Cwm4qQN/Ft9c7kZHg2AxHfURSbqKlJL4gbuvv35s4nF0c9XNxZxjPTNWcKJqTFVAvpf9HF54eC04HdWqlK6EIzrMowzJvfUK5grdqjX5O3EMNQ148q3S5KG8hgq3MKxxO3rTybvWAMpEiW2AV/3lsX9fxwb6BxxRuGO+BUxqje4Z3PQ2zKh8MbIhKIrY8FV2wvueejhcQgtIcIMTJAd3pfT59JY/7nrgYbzytIgrj7kth27KfrtQ8CsjCAz3KVF/b9+kUG0cnWQQm0yQICYBgOQ1FUEzvBdv72yKLKyodBVUjJofkDh7IURX4+FY0q8PLSgt2ZeVUZPVKjmVKWEpJXFDS6oSe8J0oQ1Hj3wfos4hiWQLFzM/VPHd5+/NsglAuN6VsnTN9OyYMIdsePWmv2g+LWra65gLY7YOg6ilJ1gWp/KaR4BYhqax/yxHuHOxqu7YtfukaTbwMK4ieF92by+X07v6dT3rDgFIcavQCmisDq7W0b5vQFZFSm9cqrv9y6vL3TB/K4CJoGShLjjkECqAOtIY3f7iOMDPcftCHYZcFoVfheSIAYJY9zm6MUHwW/FDF3n+7qN3jG3z7o3OnhKqHsZCBDT6OAlwos9se632/nnJktjHPycJ40Dukze+ny3l79FsoFB+OVXPeyZU5UWWlKX0z2vOiWwprHMHPO6om5A9LghPFRUtGLMDmQocMmMBVJFxiDPF7cGOIWf7WLjd1edzAKUrubHE3euvZixbynQ1K5XszZxSn130KYRoC952MFTQt0T09D+NQDHFO8t0auP5FUnB4k7LiDDEATvwTgbIA204qhA39HunIf6CAxYLEmKECAgkCawvK2pU767Zc8ouEUaHewy8LirlXeiOhkF0oAWkrj8a2OOJG75LKcqMQQtM/gA82paFP79GNCZ/K39s0UUkqShJWsA/CLCv7m64AJsLTOBfoPvcckCE2SCi6XX/UpumVNa+a0hyCCkKU8FQxJklAeXbJA6DLGdu76cXpEBTv3+tjd3SQdGkaBuRsFnFvo3sv6edivvwpQ7BadAojJ/RD8evcb7v70SUht8pSVTQWSQpNF51gCe8X+58/E+cPqy5FPdMjXgvYXgE7FNMAr00Pwxavnxcm6BlySpBC/EoTTBYbuleUE8im52vS/42gdf04Q0IaATdSwltfneVx6emAtWmjF4AQ1pEj6Cod/HSN+5X0wKXPCBJphX51kJ2k0pSRpaNj9XHx6ftfPO6l2ouIQN9fWUoEUrRElEi8NPN5ahQvTRK35iaJazhc89yGK2z8PGP8ab0+Omuk2XqJPBi3V4T6aivsSlpDava0Z5Yr+U0ptDwJzrAzoTPWHJQkAwMoxAx6HH5oV/+gq61mvZNBA5UhAgpqGFy+OftL8WHrj3xffz+26cCubHQ6IkQuZ1168j50VXNhS7CxiHvZl7UYBj/98gDmlmU2uDcXl9iWtDS61NfVOtJTAUvFaLHEYPQg6WwfGmXScCVos6K7Z1Ef69/Z0xR1wMU4ELexumFGhpazLGTHGY+AmOS451TVU2cCOXAxfsHEA3oY86F57PhyHoWMQHKEOGAQrdHdOCFy1TN1PTwunt9CSRR6gWTiEcR34ExmFcUV/sJ468Zti48PfHbihXcAsdz6fvXYS5UlBKYfqgpUXeR9D+vwpYvXYGoa9nCscP6a0hw+jf5cVdEKhnMUkY8iKvHeVJ0tCOeRBLRXZpWpiDtXMSbK56QQG0QOyP/e8PcG/lbWkmWm0bFoYCQNMuKD1XjfJ/FW748qQdejofAsQ0OsGcgQ5jHEoWkEHd+E7e5YlXsw9OF74bou1DQAsJmHhLxnWbt2Kg17id2k4v0ScdAWIanWCFgA7D40rm0cVHk35cAscJ/c7CMHg3dVtZXjYhV2b3XjMTY6R2AriJRBkIENPoREsEJI5Rp5J/ef9B6VVMRCRR0djRQxL4h4ATWsPknouXQmTyX+CIVdPRdFH/qkGAmIZqcNRYK2jiPP3g15UxuWdnQ1DfbtJcxTVGlFBHaPoFBtHSx3X0DnB3/4Kki46YBfX2SUxDvfiqrXU4srhdzzo1OzLrjyXFtZn2HSl5CCQLtKaEu004MMR7/CZI+HxVbYOnhjsUAWIaHQq/8p2D56XttYen5sYWXJqWVXm/HyodNSF9CC68oT8GXDYr7uU6fH+Ex6gd4HV6jywjys+rNrdATEObZ0cO2vDYcr8wZlRS8c3RkGhoGnhjOqKjFcbMEDiASYpHyqQbgVITzaZ4M9bB3LPCj9P3XE+HiGOQ0OgC5CdhnNyaSX9URnsRIKahvXOjMGVw9dwMrs33jCu4MhniaoTnViWH1jdX24LJFjb8vzdm8eIbPphnBR+MaYGP4Eat4OYs5mkxNbQshwzuad62Add97ULO+9kHXzI1sqgiqULhaeq0FYlpdNqpY044HmHg8pgf3A/xBC9Tz+rGsi7gCu5YwS3qgq2AKzgHJAkDC2NbdClvg0ztZZYm1sXgkp5lacLJdbBwSYZk1BmQWzafmARz3HW1JDENXZ1ZGePC44ygCNyqNcf/B4nisYtjxCCe0sVBwyYECAFCgBAgBAgBQoAQIAQIAUKAECAECAFCgBAgBAgBQoAQIAQIAUKAECAECAFCgBAgBAgBQoAQIAQIAUKAECAECAFCgBAgBAgBQoAQIAQIAUKAECAEFESALqwpCBxV4yEAaSIDMbOaqZF5pbOlxwNIflRJ2Og2Asyz6ug2DjQ6ORGAmB0WxxN3rt0c/e5MyK7mDDdka5wtut4AJvKOu7VvgpzNUfFOhABJGp1osrSJ1J03P/sf5F95w8TAqj0ymCD8HySdTnh30KaxEFA4U5voJVpUh4CMJHqq64ha0h0EimtzvW7mnXgZ868IhxLEjG+QHT4gJvvvabozWhqJKALENGhNyI1AbmV6QENLjYW4ihiTNKP8foTcjVKFToMAMY1OM1XaQ6iliU2JJGowvigqRbWHWqJE1QgQ01A1ok9Be96cnjc8rcOiMF2C8IN6DUifUDXUe+JPTwEMT+0QiWk8tVOv+MBBj9E2PWTZu5DUOZfbXM1C5oE/DS1VrLHd3vwYEiXFKN461dR2BMh6ou0zpMX08RM1zS6qze1uxbbO6+kYfgoYxg0tJplIIwQIAUKAECAECAFCgBAgBAgBQoAQIAQIAUKAEHhKESBFqJZMPNzlMK9uqLA3M7KohEtfFVpCFpEBCIDC16auqcYawTDUM2qC9JQF8mafw/mF+zn18tbTxgl4apgGXKTqkVoSNyC9/F5EduWDoJK6HA/BhFiYWFVw2O5Zrpa+CT6cwGh3G594e3OXh2xD88cdESTMILQd8Oe9zV+mlt3ub6hvxA1yGnL6hR6vr4f7Fw/FVQF/Br3sipQQSNA8JjY/ckxR7UMfMFmaQzZ2U0N9doOBnmG9o7l3coBj/4vdHfpc8Ob0iAFGUi3vAsLFfin98JuRWX+8UcUtdfCyCYkZ4Tv9+1DXwSdE24JFbQqensF38i5NSCi6PqKoNtMbFnhzkNOgCyP9Xvva07b7HdE69wqiRhy6/9OnBTVp3a1NHPIGeb6481nfKZsBt8fSO2I9HPONrL+nnUndvbSoNsPHwzowdpDn+J0Dvcb9Km5cQLs15J/tihillyWEF9Sm+tU0VNlgWZwvGxOXXB9O8A3Ex82qawJkrc+XFx9J5WE+u2eWJ/W+mXt+0sOK+N71zVV2MDdmUB5SZRs28y7n+SX1dn32aIBT+JkuNn6xaIYW115sXuT4Y0nb1+ZWJ/aEeeX2dh11AtbGh7A2MlRFr6bb0XmmgRv6XMrBpcllUaPK6wtdEGCYPPivqItKK6ulrbkdf1NDq3Ivm6BoP7vQf/p7jN4tbUFC+0E/Ri0/WsbN9QLHpvb6jS11LF9On3/e6vvpDKibJzypeJX8bMq+FfGFl8fBYrQV0CK4wyEo29rW1E4PvG+EzX6lr9uIg8N8Jm2TZ4Fsvr7y9/iii1MEdKHzFXhscmeHfvp6hOfz+wRt4QY5k7JnbXzhlVHAvEyE8cGxOJh5psEltBHCCz0q8+wre+M+2w5Z6M14tLfCuLmsYV4zfpgcNH+VKOM4lrh9zYnkbR9C2wC+fvsFt+bWhsYZwWsWwbj+JzyutNL4/seTfl4PG7Y/YGQmyF7/+Nh58wXttQADig53H7Ub2tkqDz6iZeFOjeel9EPzbuednwLz6SfoV3RueEyQNz+wViqDnZ45Mq7H7I9EGQEw1dE/3XjvQGtbm5WhvvGjS30uFn7xK4du6y+OuSpDv6bq6izTgC+nGVzd/uB06rb34eutjxtH3OSLAxoXNH9R4+uGUOcRxyb0fPNjuPJ9T7T8l5feisqoiA3Hy1rCDzo9wQbaPCNs6SL8O4qn51L2LzmS9P2HQI+RfPQ0geNUDcvRzCd+esjKdwOdI87LWiBRmWdmbL+9/Fe8VCb84GK3NnHKBSYwEG+inkz6Zc1fiRvXA00s0TEI6vHHsgXGsgD/hv4Za85NTgKG4qivZ/RY+/XN5aw3em14BZjSAcELZNwrzg69Z8f2FaGlBeekdsmATcPBvyMar9vvi924KTLrwCy2gXX7fDGZMxwT4gNeqtFzeq99Xd6r+bhWItOPzTmY8PkGwIEt39y0APNoxHHVvRz4/rIhXSdsxSMIjgXXRkFNegAyDNG1MbHH4lVjus/6QtY8auN7nfQIxYzo+2P/++3f6btXw6bRx83AZPEJJgjL4kSzDS3xxwS/1huvzL9w9eHx2Y9vwBb9rMr7YYIvufA7EGFZcFwZyvsqtdPzHXxpPwV6jOSnxwi+aLascm5B0NaYlb8BHa/KWkzFddmwWNlPFMNNXt9c7VTXWM05l3zgvaMPNq/H6+2SGAY2gJfQ4DjXHY8w+O+C6qxu1Y1FTzAMXlk2K7E4ZrRwxyDJ9DE3dBJDiwF6kpoX1+R5I0bAMDbfyD0+y8LIoR1/pnOGY0J84AgQvuPmh/vxFq4sfATvsd/dtz//6c/EbzYBDmz558agHTtYA2a/J2z44fSDX1dj23C08uG2VLmLGwPiWVCTGcSURm0rp5NMY9etz7ZBrIe3pG0EeSYC2wHR22H77RXbyuuK2o84+NSDcgy+MsbiF7c+CxaNJUoYQM/Wa9l/vq4sPXwRl7Pzzuo9f8Rv+kTaGKq4lY5S3hueT/tt7eGkTRvl+Kq2QHsyJVMU6Zta6x4Xb548Cz4iDctXN5R7/BS1+vD17MMzlcEI6+bXpARtiV79F8yTq6w5xjJfX15wNib3VHu/TJmUuHZ5UpGRwe/3v1wPR7HPoIy+XpuhWD0Hb+3U2sHaMJFFoza+1zmmgcq5W3ln54qK5f9+WZra70mgGC34QfEbzubt51RJDy4KOD8bZVY86CVcBs/UkuqwDawa4UiyHL6eb6DUIvrwjkFN7X3L6l9QF+nAsZ1J/XmtDIlD4tw2tzaxQKcykan4D7oHVldOwCU4g9cxXMSM1xUywosZB9+/X3z1BXEYMezvUTHc/FmV8WHXs07NklV3392N/4Wj5XAm/YrOFW++npx6lJIupB94907ePygNdkqmIAs3nQr3h2fTrdFrlqKmXtxXAyfa1bLb/VCXwb85mHVJtjCxLgGNvF1Zfb43iIuBYFUJgy+VP3z99EXPoQIgwTrSfoCV9WD/INL7nUze8aHo1xPp0NfTawMLSZKZkVWpNZtTWN9UZ1nVUOZSVp/rB8q/djFZ2mNsYMbaF/fFVmCSBaDj+FtMWalSATIOWQ8yNFRudrMLv/ysz9RNLNYbgioSv6AS2pRKS2VDsa3ofCFGeM3+36OfQPEp+9iC2JxK+XkVHFP2S7JggS5nJehypkr6uPz7keHpLCAiWbaThdcDSxPbIr6kYAXz6wOWoB74b2HdDmBrejrl5/fwb8pIL7Lmp6Pe6xTTAD8HR9AjPCNuolCa6N/lxT0Te85fBRaNXDFfff3K+lJnkCTCLmX89XZ80fnReD4XWBLQimBp7Piwp1NfUSWk1A0kzHwECjt/u4EXwfS5wc26awL4ZVQAi2rfwfWNtdZl9YUeUVlnZ8BxZiFo5w0kMQ8cI1ou/kz44T9QVW6mIWnB4WZtaq1lmRhYtKJVIshp4BGwIO0Bk2+5uhap8HwJrtv3cxv3q799r3POlp5J2C/6sABT73Ut+8ibxbWZHoIwg+JowvagHcuEguiR8P4JiwpasCC26WJsQ9qDa8YelMXjus1b080hLBLiiBSDroqLdYCZsnG9gZk6ECxPK1LKogYL0ySqIFYXdh3Rrk4xjeTiO0Ngoo1FxU0UI92teiRND126EETsGgkLrRX+juZR/DmBGv+orNOvgc/CePi3Xhdr/xiwr69T1DmHb7XImh7yzes8yUBsyAkU/9HfIBq+kt/si93wY3Jp9GhJCxAZUnZVfJ9/0v56U9RsiTTLs6B4onYrq7t9xN/h7qP/F+o28ATPJCiXlVeeLp8oiwwj3G3C7hd7vomM/TFTNb/wSaDz8/Mpvy86mbL9P7Bx+ebeJ7tFXUlCUfR4kD5/FTVtgk/NF2h+l8SQ+dazZrRwjPJ/9RsJc45z9ZD/cxyOirOOJ2/9CvxhxCqIxQCDHxt5JTal8FVVZZ1iGmX1BV7igMFFAJs+ThLDEFeHb7Z7HzbvFtyAdmbOmWIWD6NJx683ROpOfL3Px9PEmW3F9Y9iNZg2px+M++6/oCCcJencDRIBKyb33GtQ9oDAAQyPZ2CtYUQb9s33OWgDk+H8CM+RuMmY6i5UtQ7b9UyDPV7a9EroksXSGDP/3ffAKBt+jftoi6TjBUobuVXJfVB6AyIfOZuhZWXV2dFjpR1L4DjSNt7/7ffBJLqRxZKpGmnHAJzUfoGjYj5Yt44AnmxdljQYK6xUtjrU2FBDM9ccRP0negD9Aau4NscXbefydo+bF512pCxkqZsTGZaNqX3+woivxjBlGAIa0Z18du8P5oJO4R9kPOIeXJxp5bcGp5TEDRF5z4hpIMNA79NVQ3b3RucxNTEMGfqVRlYP+4Hn0SmMqSSHjlwDu7y0UzIuYJVpLHMEPdFjVqSorFMzwatT4jLAIwkwjBU8hiHfAxLk2Xl9v5wAOpU6cUpSkdbkkgTlo0S9pXWKaZgYsmtbWnlencIPbizQkve6kPrHEjXAiccaKU8rC87EqyQp5GTRg5toUsDClSglSVuId/IuTxZqCxekTKbBSzvQ3PJq6PuzxLmJy6JNVe9RhzLc56Uv5ZEEse++7sMPQJ0GSXSg9IJ6B8F7dKtPKr41An1oxD3IQMH7NRWPJIqODRlHH9fRP6MOTMaDc9QpGYdOMQ20iEiaKDy/oiMTuFafQLdp9J+QNasM30vcnLgIQUo429v9mT8YtiW2GEbDgoW4k+95+EQZtDDEFV4cI/JCJtNAHQYcSd6G9qOUoU+Zusi4wNM1EzbbOXnb8bUPusoxdUuSZCqH+yKsmoZKe0G74HDlnVedEizFbYQ1Lei9JUylHUn0vhjwxjpQoObIkDY6JcPAMesU0/CxD4wC0bBB0mQh4wDvzjH/vbboKngB7gVX61fBwcdN3sXKtDyaK0OcBx9SxR2DCI/nf8VNIO7B8zt4aDqJODTJODY1scA6EoU6DKbjESqnsgWPjNDXLuyaAjSAt655rZOFeyrc7RBbnXcM+ZfU/Kos9Gq1Emdda2deYAL3tPF/4mKevLShpSnQYdgxSUxeHTjKS6My5XWKaaCyEr7I+6VNFt+70+RO/oUJu2LX7ll3fuqD766+ewK136gkQyWiMoAK10UxOMRl0FFVtAcRwG86mHs+lPb1yq1KDxDqSyrTQIY21GvyD6pgaAzGJ5UWZwvPeAZtiC3CMXXJQn8OKc+j+Syuy+qGjmriHlwzHtY9oyVYbeQmL8Cp32lx1wuYzo/cHWqwgk4xDfiCtI3we2kjMAauLO9ONFciA4FNaJ5UEjVm1511uz7/Z1YMuHzvAglkOsPji8RzKW5uuBiWibEXVDGfKDI7m/vek8Q08KsqLIpL6xPbAImsMcgl4pQqaFO2DSN9E0YhCMT1A3osxnVLagu9xSnKsV3Uhblb+SgtZQhotDV1yLZi25YyUIgqC5/G6+sU00D00ELxeu9Pp8KmqJXGOARIC19Og6+vPd5DAAlk78cXXo4Dr8H3GTAPsRjiYgEPQok6FkVm2t7MPV3aVxVFbyaiL9LWza7vBVNwLFOEDqgjSxpjoE9RsOcnq8mi5VENuBNjjv4b4p42VjMLvD1VwuCxfSsTTiFcIyiWMkrEiDHtKkNLBQ3pHNNATCDIzHFgHJPgS5+DJjSm3F7AQFACgUzoXcHN+D9wdDmNgVSkYC1x4mERliirVBPu18RQ+he5qaVRvFlAhHhkPBAr5BJKZipYQ6poQpnNw7huJbfMHs3vkh62kZncgY4ktWVsaILmE6nnJlUA1xFt6CTTQCDR9PXBM7uCxndf+CFElcpF8xsTyUNYAkEHoKzKe4M2Ry/+DZyJ5kuYIIkbD87PGO1JlQ/jDSKtU3SN55g6Z6uSsA5sizEmcM+nUpLSVNX0Nza3z714sYbXmbYwbLmHrlMeoaKj58fa/AQUnLvhHsKo6JzTs1PLboZjOYxpwOSWJ/p4GBvom0CshI2gLG0Ez7+fmaCMX7TCmpyuTMoyLQOOSk6SxGtsw8yY6XFDn6XKrypT+qWUY7zxlekLcsxKlCRQJwR+HHbKtC9ct7apitPQ/ESIAFU136Ht6DTTECDLd6zaAseUbaV1BZ6xuZEvJpfeGQFuxmGVDYXO+PWRdKsV20Dm0trGMttz95Nvwax5ilk8Sn0W3Fj1QJ2IqiwUuVVpgZLEazyTA5MslWM1aWSjykGP2ouCnqFAkk4IFaT51Q+FrU9K0VNRX+IGHqlOdMtVKRg7vjJfv4ABXb8FBvIdMpC0koQIiDQ16mbeiZlohsRr1eImGv/W2NJsBXEa5kD9z4VGI3bz8X0nrFNL4gdAWbkdl0TRQh+MVefG9ZJ0yQrjVUIw5M4arFYjDMzezDVd0irEI1tGecJg9BpVRTT4rIoHffBILCPEQac8ojwVkoa4hSLEQHCj7YdNuQoYwsxzaXvWggsw3J58PPYltoF+FymlscNhYf0kdFVc4oLHq/UxOednqIJp3M2/Mh7MgnpGErRQZoY2Na5W3omymJmKWHenXOwYNRwCAddjvAtRHHC+wVs0DEMZwjul8tGidAnxQV/mhVXQvUdnFaHyThU69WCg10UR3w4Hz8BE8RYXfVYFt8gDcmAIh7OTiCE690AU9LEYsVxeeoTLYyBfvMkq7c4EeHfeUaWlRhl6FairESZkxeYU2LCdwEFOfAAiCH5keinj0EIF6H+syq2ci9NyqhLhKPnkh0fZtrWhPjENkVnAexgjfWd9LOnCEcT9tOFyucK3ZSVKGnhEgbOtPcRv+IqBv4fE9QC5Sxakl8cOkLQI8WgCIfz3asOC0mYa8LayL6fXJUGqClFa8ShxLfuPWXDF/TlFx4EfiBMPdqzHY66uPjrFNDDPBDhkfQg/H2HuDEUnzd2m6z1ULIp7IFhsA5vNFg7kIzNyF0QBGwWxQpcpQg+MaeSJ5K3rJSnUUCKyNXUq9rEJEb2/oRE9gSJjElNHI5IG9hviMvAwpjuQ9GB8EoiG9l+41Bgq79jwHtP+uxt/gqjxbrqoABXgoTNMA/woFv50Y9lRuMn6Efx8+M3VBZf33tn4ozzh7AWgwG1IT/ELppVlCjE9ITWf8AUGmQse/T0gZuRHQM8mVLQxWYx4Bwbd2XfcWvM72G/0JS1CvDPR22XkL24cL+GcLB0dFUoUE5kYMcFEFWXAf+eMl3VYnKQjCkpzEPczYEvM8qPw4Wk3zzN5gMn02haz5g+IbTJQmiWOSVvaXkYnmAZaFs6k7YR8E62GKGLyw9EbRmYdXPDN1fnXIKT8J0z1Cripz6XuW4ZfHNEHTbPgFJVpamxeKe/E4mL85+HetzddX34SspPNkHZcwQUIkbc2ozs7WHQspUkZeGdiaNeJmxXw7tSajSwvlsqWn9Bj/gfS2sC5grB9XeA29HlIFfEVxhSVVB4+St4g2a6GshcgI1yErIDQytKuDfV1Qr3b3NZkDMFm3URDuPHdwV0gIvhaCCu/BFzCr8JV9aO+9sGReKEIbPOCcFhtEBbOBoIK994QufAz+NKEiNMf4A3JAMfwUyLBYhhvPgzZBx6m/ffcvd//TKpnHEgel9ysvBPYhhYVIDGYVHJLXcE6MxQW4GBkKrIWIEoZGMdSQoAfxnSpYSFqsm9ZfT3xPthlwMk+rmN3QfDm2ZLCKOL842XG8+l7l9/KPzMX8qPc7+7Q+yLboN2Brq2ptcEU5moQfJSCId6oOyq9FZAwOtMR8tEy0QmmgaMByaAeJtlU9Kss8PrELzbcZh11r+jSKLBCtFmx7YogiXA2vG+GeoYVDfnuJbW5zmihEMcw+NaUhr5dhj9KN8hHUeKihXQHEDG8qb19AV2CtoExBUO6hGDRSGM8C4m+zAWIPgC9XEb8DgmXfxCNY4lSBzAkuTeTGpiHVjaJViaQKN8Dy9ZIUFS7SNrsgrUD95DsQPIYjGEVhedL4FUsytx5t4jZGNFNX1KqCHBpL2SaYFzbQNSJ4wnG0RjQZfI2/PJKupwmfJsVNq4eLAQn+Or3eVhxNwJ/w7+d8asj2ULR/lX/iGko//bYoGyn5BnBq2dD33Dn4fG7S9gPLjZ+6sdHv5nkysC4mJBEOG5G6Iq3pHibdiTT0CadhlgccB7n9/16nC3bOV9SnFHBZuUxjyfnS1zqSF4QaZ+ECd0XLkGJRNyGR69UzDyvbcyAKT06wTTwywpBaT+AgLCrYOAtvMtp0i8YChYCb5NKT2qDmdggtP4OiB35lRhgJW5OMM9a9PN4bh8wjnk8hiY7QZGsicNbu11tQy9BoOIJMjwXO5JpyIibKmuUqnnPs4C1STwCQFzU2wsjvn4eAj8XCfKtKNMztgFMKHdm2KrpwMxL4YgpsW9bU3txKRqU6V5jdXWCaSBa+MVF56xVQ3eFgtj+F3DyeibMQxrSuMnxZ0CXKTtn9X7/LTHOU7I2ZjvngpB6B+f33fgCXtVXdHHyaGkBWibv+L8BG8bKClTsaO72QFyQZb7oXAM6nScSRjFddeAkVQgXvMRyQNT7uFh63xVuC5hbiUQTNlwEdbBwS2Xat2g5S2MOSAriwyAa6ZuzMIuetLYx/sp7A7dEwJr5U96b0IJ2EVOsixHV3x20aRAwo7hbeRdekdQvXjqEiGMPFR1zR9fTGaYhABIXwVv9PpsMnp3PQh6NbRg9Cb/OggUhTQLBd/iDIiZKF+AZGv9ayEcvQxqBNxT0tsSN1f61wRgfsKAGQ+awvUgLE4YmWIxIP3h8Xl/Qb8Pzc/p8AHlhMYmR9KeP+7MHUAQWFb3Raa2HQ/gxcKl+bGPLak/4PR4HQ51HHEa6hB/sy8KYUxbmOuyxQMqoeIRQhUmiDBP/DWkyb0Nczlvy9C9cFsIp/gltZ4qOE9sGiew6Bh+W1TY6fcGamfJayLpZzhZ+sTj3glytktYLb600ta8TWGMFk3u89+688E8nIDNHM//94sjh0nQl4AsUJ4subX2vM4pQUYD5EbajwBz78YPi2CFwKW10TlVyr7rmMiduU705bB5jwYbm/dZvhU3WZGpoWeZm1e1Wb9fh+4Ncwk/CV7JKxuTJkjYevccFBYtt5lDviT9czji6IKX05nP1zdUcoMUUzbmCG5h4ZwE8CptNDTnFEHT3fD/353fD4r/GhFkIaEW3eAge9PKRxC1fgNI1UHCTN9Bx6LGpgYuXKmCifQQD1gVcl8AfDCBx8yTcQHjcA9E8fXrIynn8RFPC5VvBjPzKgbhvvgf90WCkBcuDXiZ2Tu+1M5WJy4kpNsGf4uV9dzdsKahJCRG07WbZI/6VkKXSdD5PTCuEPdgNR4o/Y3OvvhBXeGnqw/L7A3jzw4W18u+JC46zzcAoKjls97QAx4hjkLZyp3Cqz+OJu1aB1yko5Z90I+dn2suWNweONjGQTmnyURRATJaEYexRYw5abRNgHo+cMdhGptWYq5Nj6pQjLteruD7Rp2PF6dEFsDieyA6OGwkWVuZnIw57S9qgeKcEL0gV1+R35TbXWAv6ABNspYOFSzrQkq3MhsL2YHO7YH5ablOdFYrqkIv2goJS0xMQwBj17xfGPANJtO0RP8xNC4wxU9L8YILupKLbwwB3KyzvZx98VRU3SrE/nAtIGDUQ2ra0MLEq9eb0iJHWNp/256FqG5SNFlcWPTwxty7mTsF2BePC9kEPkgMXBBNEsYSYKzMhMfcW+LvYDN4onY30nbtxStAihTyEFV37qqyns5KGOJD4/hUY+Vrh6Ndygi8tchPGvyiH9qL5P3I2zaw4P/YH5odV+cPfMKIJsSX2w8/edlLlhECD/E1/gknb6Kz1w7VlX0CycLxj0uZo7oXxYP8A8/WPwtIc/+PBWPeDDONA/NffQ5tiGQZ+SOD4VhXhMWoXEzq1tcxTxTTUNAnSjidPlSSnJnxV2iy656+/MHMH3ELtJ3DsgmNNv78S7/S7knl4DniAHglzHXrI2dIjmYkUhBJLRtn9vnA79g0I0jQHnLwMpLn8D/R4eWtnPprgZNCiVmJJ8o8nuXA8eeJKI/94kg3HE09l9AdKkEdVxSCAUsba8+PjLYwcnniLc4amcYi5UQE+NhmYNBxysiSCpSMTjouPBTgqqM70h0hfPdLK4sILatID4ejlIM0jFHUZ6FAIlppwWZYvbZ84kjSUnyFpPgk6GY1aeci0swWe744pevHagPI4DJhBmCC5kqjJGGOKYohAXqAd6R68fAtM6wT//1vS2RkGzhwxDeXXrzSmoRVOTsoPUXdaQOUleGw+AGW4v/S4sOjwhwGo0cim+MN36GueGrBsUYTn8/sVb0l7auqcn4amoQXTmjQMiWloekJk9IdHRXAff9nLJugy+liowktXUpfoK4JJu14L+fC1YT6TtmoZFAqTQ0xDYeh4GnsIgCM2OziKpGDHTyd9hhIAq6kqeGzGLh747cg5YZ/PBKe5azBXrYp6g4qSKHDIg9/cIMdnDi8dtCUcPIJFLzmqaWSaaZYUoUriDKa6FYcSv/tSOIo5X6HWNjt0/SvoQq5kF1RdzQhAdLQRGeX3+t/Ou/gS6DJ6gDOXnrC+ArsXtYgIe4ri/6NjHrrt25u75XfjRJwc4j1+KzgYxqiZ9A5pnpiGkrBj3IvjiTvXXczYtwS8EY35eUm4Y7vNWwcX3DaqypFKSTKpOgME0NmuvL7YLbHw5ojsquRwyDMTBB7EznwnQD1QkD6SzCHsAR49W9GDGHL23neD5NG+diGXwMHtHrrZ67KESUyDwWJiUgRcmftlV6SEGhkYc0H8vQm2+PtM6lEZ7UYAPwoYoAkyptmCJPHILxwkkSZzI6syjOImj3u/do+WqCMECAFCgBAgBAgBQoAQIAQIAUKAECAECAFCgBAgBAgBQoAQIAQIAUKAECAECAFCgBAgBAgBQoAQIAQIAUKAECAECAFCgBAgBAgBQoAQIAQIAUKAECAECAFCgBAgBAgBQoAQIAQIAUKAECAECAFCgBAgBAgBQoAQIAQIAUKAECAECAFCgBAgBAiBDkLg/wF3CAxhos6n8AAAAABJRU5ErkJggg==;fillColor=#21C0A5;strokeColor=#006658;fontColor=#5C5C5C;" parent="lZvOYTNsYxkt9xm4c5QZ-10" vertex="1">
          <mxGeometry width="100" height="69.52" as="geometry" />
        </mxCell>
        <mxCell id="lZvOYTNsYxkt9xm4c5QZ-12" value="&lt;div&gt;로그인/권한서버&lt;br&gt;&lt;/div&gt;&lt;div&gt;JWT&lt;/div&gt;" style="text;html=1;strokeColor=none;fillColor=none;align=center;verticalAlign=middle;whiteSpace=wrap;rounded=0;fontColor=#5C5C5C;fontStyle=1;container=1;" parent="lZvOYTNsYxkt9xm4c5QZ-10" vertex="1" collapsed="1">
          <mxGeometry x="7" y="67.5" width="85" height="30" as="geometry">
            <mxRectangle x="710" y="560" width="60" height="30" as="alternateBounds" />
          </mxGeometry>
        </mxCell>
        <mxCell id="lZvOYTNsYxkt9xm4c5QZ-14" value="" style="outlineConnect=0;dashed=0;verticalLabelPosition=bottom;verticalAlign=top;align=center;html=1;shape=mxgraph.aws3.mysql_db_instance_2;fillColor=#21C0A5;strokeColor=#006658;fontColor=#5C5C5C;" parent="1" vertex="1">
          <mxGeometry x="994" y="337.94" width="40" height="43" as="geometry" />
        </mxCell>
        <mxCell id="lZvOYTNsYxkt9xm4c5QZ-15" value="" style="outlineConnect=0;dashed=0;verticalLabelPosition=bottom;verticalAlign=top;align=center;html=1;shape=mxgraph.aws3.s3;fillColor=#21C0A5;strokeColor=#006658;fontColor=#5C5C5C;aspect=fixed;" parent="1" vertex="1">
          <mxGeometry x="984" y="210" width="40" height="49.11" as="geometry" />
        </mxCell>
        <mxCell id="lZvOYTNsYxkt9xm4c5QZ-17" value="" style="sketch=0;aspect=fixed;html=1;points=[];align=center;image;fontSize=12;image=img/lib/mscae/Cache_Redis_Product.svg;strokeColor=#006658;fontColor=#5C5C5C;fillColor=#21C0A5;" parent="1" vertex="1">
          <mxGeometry x="990.97" y="486.78999999999996" width="46.05" height="38.68" as="geometry" />
        </mxCell>
        <mxCell id="lZvOYTNsYxkt9xm4c5QZ-32" value="" style="line;strokeWidth=2;direction=south;html=1;fillColor=#fad7ac;strokeColor=#b46504;" parent="1" vertex="1">
          <mxGeometry x="828" y="318.79" width="10" height="81.21" as="geometry" />
        </mxCell>
        <mxCell id="lZvOYTNsYxkt9xm4c5QZ-33" value="" style="line;strokeWidth=2;html=1;fillColor=#fad7ac;strokeColor=#b46504;" parent="1" vertex="1">
          <mxGeometry x="832" y="394.63" width="160" height="10" as="geometry" />
        </mxCell>
        <mxCell id="lZvOYTNsYxkt9xm4c5QZ-16" value="" style="strokeWidth=2;html=1;shape=mxgraph.flowchart.database;whiteSpace=wrap;fillColor=#21C0A5;strokeColor=#006658;fontColor=#5C5C5C;" parent="1" vertex="1">
          <mxGeometry x="924" y="366.46" width="70" height="66.33" as="geometry" />
        </mxCell>
        <mxCell id="lZvOYTNsYxkt9xm4c5QZ-34" value="" style="line;strokeWidth=2;html=1;fillColor=#d5e8d4;strokeColor=#82b366;gradientColor=#97d077;" parent="1" vertex="1">
          <mxGeometry x="644" y="489.13" width="190" height="10" as="geometry" />
        </mxCell>
        <mxCell id="lZvOYTNsYxkt9xm4c5QZ-35" value="" style="line;strokeWidth=2;direction=south;html=1;fillColor=#6a00ff;fontColor=#ffffff;strokeColor=#3700CC;" parent="1" vertex="1">
          <mxGeometry x="589" y="360" width="10" height="80" as="geometry" />
        </mxCell>
        <mxCell id="lZvOYTNsYxkt9xm4c5QZ-36" value="" style="line;strokeWidth=2;direction=south;html=1;fillColor=#d5e8d4;gradientColor=#97d077;strokeColor=#82b366;" parent="1" vertex="1">
          <mxGeometry x="830" y="493.13" width="10" height="47.87" as="geometry" />
        </mxCell>
        <mxCell id="lZvOYTNsYxkt9xm4c5QZ-37" value="" style="line;strokeWidth=2;html=1;fillColor=#d5e8d4;gradientColor=#97d077;strokeColor=#82b366;" parent="1" vertex="1">
          <mxGeometry x="834" y="535" width="160" height="10" as="geometry" />
        </mxCell>
        <mxCell id="lZvOYTNsYxkt9xm4c5QZ-19" value="" style="strokeWidth=2;html=1;shape=mxgraph.flowchart.database;whiteSpace=wrap;fillColor=#21C0A5;strokeColor=#006658;fontColor=#5C5C5C;" parent="1" vertex="1">
          <mxGeometry x="924" y="501.43" width="70" height="66.33" as="geometry" />
        </mxCell>
        <mxCell id="lZvOYTNsYxkt9xm4c5QZ-39" value="" style="line;strokeWidth=2;direction=south;html=1;fillColor=#d5e8d4;gradientColor=#97d077;strokeColor=#82b366;" parent="1" vertex="1">
          <mxGeometry x="750" y="280" width="10" height="214" as="geometry" />
        </mxCell>
        <mxCell id="lZvOYTNsYxkt9xm4c5QZ-40" value="" style="line;strokeWidth=2;html=1;fillColor=#d5e8d4;gradientColor=#97d077;strokeColor=#82b366;" parent="1" vertex="1">
          <mxGeometry x="754" y="277" width="180" height="10" as="geometry" />
        </mxCell>
        <mxCell id="lZvOYTNsYxkt9xm4c5QZ-18" value="" style="strokeWidth=2;html=1;shape=mxgraph.flowchart.database;whiteSpace=wrap;fillColor=#21C0A5;strokeColor=#006658;fontColor=#5C5C5C;" parent="1" vertex="1">
          <mxGeometry x="924" y="252.98000000000002" width="70" height="66.33" as="geometry" />
        </mxCell>
        <mxCell id="lZvOYTNsYxkt9xm4c5QZ-41" value="&lt;h1&gt;로그인/권한/성향파악&lt;/h1&gt;&lt;div style=&quot;font-size: 15px;&quot;&gt;&lt;br&gt;&lt;/div&gt;&lt;div style=&quot;font-size: 15px;&quot;&gt;1. 로그인/회원가입은 할 때 spring Securety사용하고 JWT를 이용하여 유효한 유저의 요청인지 서버가 파악하여 서비스 보안을 향상하고 유저의 개인정보 데이터를 RDS에 저장한다. 이후 radius에 Refresh Token 저장하여 JWT의 Stateless의 약점을 보완한다. &lt;/div&gt;&lt;div&gt;&lt;br&gt;&lt;/div&gt;&lt;div style=&quot;font-size: 15px;&quot;&gt;2. 로그인 이후 유저에게 앱 카메라를 통해 얼굴 사진을 요구 후 Flask서버에 있는 얼굴 인식, 얼굴 특징점 추출, 서버 메모리에 있는 성향 대표 특징점 과 추출 특징점을 비교하여 유저의 플레이 성향을 얼굴로 파악하여 %단위(예: 공격:30%,수비:20%,균형:50%) 정규화한 값을 RDS에 저장한다&lt;br&gt;&lt;/div&gt;" style="text;html=1;strokeColor=none;fillColor=none;spacing=5;spacingTop=-20;whiteSpace=wrap;overflow=hidden;rounded=0;" parent="1" vertex="1">
          <mxGeometry x="24" y="10" width="916" height="220" as="geometry" />
        </mxCell>
        <mxCell id="lZvOYTNsYxkt9xm4c5QZ-43" value="" style="line;strokeWidth=2;html=1;fontSize=15;fillColor=#6a00ff;fontColor=#ffffff;strokeColor=#3700CC;" parent="1" vertex="1">
          <mxGeometry x="754" y="394.63" width="166" height="10" as="geometry" />
        </mxCell>
      </root>
    </mxGraphModel>
  </diagram>
</mxfile>
